<?xml version="1.0" encoding="UTF-8" standalone="no"?>
<!DOCTYPE svg PUBLIC "-//W3C//DTD SVG 1.1//EN"
 "http://www.w3.org/Graphics/SVG/1.1/DTD/svg11.dtd">
<!-- Generated by graphviz version 14.1.5 (20260411.2331)
 -->
<!-- Title: ParkingLot Pages: 1 -->
<svg width="804pt" height="448pt"
 viewBox="0.00 0.00 804.00 448.00" xmlns="http://www.w3.org/2000/svg" xmlns:xlink="http://www.w3.org/1999/xlink">
<g id="graph0" class="graph" transform="scale(1 1) rotate(0) translate(36 411.88)">
<title>ParkingLot</title>
<polygon fill="#f8f9fa" stroke="none" points="-36,36 -36,-411.88 768.25,-411.88 768.25,36 -36,36"/>
<text xml:space="preserve" text-anchor="middle" x="366.12" y="-28.9" font-family="Helvetica,sans-Serif" font-size="18.00">PARKING LOT STATE</text>
<text xml:space="preserve" text-anchor="middle" x="366.12" y="-7.9" font-family="Helvetica,sans-Serif" font-size="18.00">(GREEN=Free | RED=Occupied)</text>
<!-- Slot1 -->
<g id="node1" class="node">
<title>Slot1</title>
<polygon fill="#e74c3c" stroke="black" points="0,-270.5 0,-306.5 347.75,-306.5 347.75,-270.5 0,-270.5"/>
<text xml:space="preserve" text-anchor="middle" x="23.38" y="-284.6" font-family="Helvetica,sans-Serif" font-size="12.00" fill="white">Slot 1</text>
<polyline fill="none" stroke="black" points="46.75,-271.25 46.75,-306.5"/>
<text xml:space="preserve" text-anchor="middle" x="68.62" y="-284.6" font-family="Helvetica,sans-Serif" font-size="12.00" fill="white">BIKE</text>
<polyline fill="none" stroke="black" points="90.5,-271.25 90.5,-306.5"/>
<text xml:space="preserve" text-anchor="middle" x="130.75" y="-284.6" font-family="Helvetica,sans-Serif" font-size="12.00" fill="white">OCCUPIED</text>
<polyline fill="none" stroke="black" points="171,-271.25 171,-306.5"/>
<text xml:space="preserve" text-anchor="middle" x="213.88" y="-284.6" font-family="Helvetica,sans-Serif" font-size="12.00" fill="white">PB10ZZ1111</text>
<polyline fill="none" stroke="black" points="256.75,-271.25 256.75,-306.5"/>
<text xml:space="preserve" text-anchor="middle" x="302.25" y="-284.6" font-family="Helvetica,sans-Serif" font-size="12.00" fill="white">Harpreet Kaur</text>
</g>
<!-- Slot2 -->
<g id="node2" class="node">
<title>Slot2</title>
<polygon fill="#e74c3c" stroke="black" points="9,-215.5 9,-251.5 338.75,-251.5 338.75,-215.5 9,-215.5"/>
<text xml:space="preserve" text-anchor="middle" x="32.38" y="-229.6" font-family="Helvetica,sans-Serif" font-size="12.00" fill="white">Slot 2</text>
<polyline fill="none" stroke="black" points="55.75,-216.25 55.75,-251.5"/>
<text xml:space="preserve" text-anchor="middle" x="77.62" y="-229.6" font-family="Helvetica,sans-Serif" font-size="12.00" fill="white">BIKE</text>
<polyline fill="none" stroke="black" points="99.5,-216.25 99.5,-251.5"/>
<text xml:space="preserve" text-anchor="middle" x="139.75" y="-229.6" font-family="Helvetica,sans-Serif" font-size="12.00" fill="white">OCCUPIED</text>
<polyline fill="none" stroke="black" points="180,-216.25 180,-251.5"/>
<text xml:space="preserve" text-anchor="middle" x="225.88" y="-229.6" font-family="Helvetica,sans-Serif" font-size="12.00" fill="white">KA03MN9012</text>
<polyline fill="none" stroke="black" points="271.75,-216.25 271.75,-251.5"/>
<text xml:space="preserve" text-anchor="middle" x="305.25" y="-229.6" font-family="Helvetica,sans-Serif" font-size="12.00" fill="white">Arun Nair</text>
</g>
<!-- Slot6 -->
<g id="node6" class="node">
<title>Slot6</title>
<polygon fill="#e74c3c" stroke="black" points="388.62,-270.5 388.62,-306.5 727.38,-306.5 727.38,-270.5 388.62,-270.5"/>
<text xml:space="preserve" text-anchor="middle" x="412" y="-284.6" font-family="Helvetica,sans-Serif" font-size="12.00" fill="white">Slot 6</text>
<polyline fill="none" stroke="black" points="435.38,-271.25 435.38,-306.5"/>
<text xml:space="preserve" text-anchor="middle" x="456.5" y="-284.6" font-family="Helvetica,sans-Serif" font-size="12.00" fill="white">CAR</text>
<polyline fill="none" stroke="black" points="477.62,-271.25 477.62,-306.5"/>
<text xml:space="preserve" text-anchor="middle" x="517.88" y="-284.6" font-family="Helvetica,sans-Serif" font-size="12.00" fill="white">OCCUPIED</text>
<polyline fill="none" stroke="black" points="558.12,-271.25 558.12,-306.5"/>
<text xml:space="preserve" text-anchor="middle" x="603.62" y="-284.6" font-family="Helvetica,sans-Serif" font-size="12.00" fill="white">DL4CAB5678</text>
<polyline fill="none" stroke="black" points="649.12,-271.25 649.12,-306.5"/>
<text xml:space="preserve" text-anchor="middle" x="688.25" y="-284.6" font-family="Helvetica,sans-Serif" font-size="12.00" fill="white">Priya Singh</text>
</g>
<!-- Slot1&#45;&gt;Slot6 -->
<!-- Slot3 -->
<g id="node3" class="node">
<title>Slot3</title>
<polygon fill="#2ecc71" stroke="black" points="104.12,-160.5 104.12,-196.5 243.62,-196.5 243.62,-160.5 104.12,-160.5"/>
<text xml:space="preserve" text-anchor="middle" x="127.5" y="-174.6" font-family="Helvetica,sans-Serif" font-size="12.00" fill="white">Slot 3</text>
<polyline fill="none" stroke="black" points="150.88,-161.25 150.88,-196.5"/>
<text xml:space="preserve" text-anchor="middle" x="172.75" y="-174.6" font-family="Helvetica,sans-Serif" font-size="12.00" fill="white">BIKE</text>
<polyline fill="none" stroke="black" points="194.62,-161.25 194.62,-196.5"/>
<text xml:space="preserve" text-anchor="middle" x="219.12" y="-174.6" font-family="Helvetica,sans-Serif" font-size="12.00" fill="white">FREE</text>
</g>
<!-- Slot4 -->
<g id="node4" class="node">
<title>Slot4</title>
<polygon fill="#e74c3c" stroke="black" points="5.62,-105.5 5.62,-141.5 342.12,-141.5 342.12,-105.5 5.62,-105.5"/>
<text xml:space="preserve" text-anchor="middle" x="29" y="-119.6" font-family="Helvetica,sans-Serif" font-size="12.00" fill="white">Slot 4</text>
<polyline fill="none" stroke="black" points="52.38,-106.25 52.38,-141.5"/>
<text xml:space="preserve" text-anchor="middle" x="74.25" y="-119.6" font-family="Helvetica,sans-Serif" font-size="12.00" fill="white">BIKE</text>
<polyline fill="none" stroke="black" points="96.12,-106.25 96.12,-141.5"/>
<text xml:space="preserve" text-anchor="middle" x="136.38" y="-119.6" font-family="Helvetica,sans-Serif" font-size="12.00" fill="white">OCCUPIED</text>
<polyline fill="none" stroke="black" points="176.62,-106.25 176.62,-141.5"/>
<text xml:space="preserve" text-anchor="middle" x="221.38" y="-119.6" font-family="Helvetica,sans-Serif" font-size="12.00" fill="white">UP32EF6789</text>
<polyline fill="none" stroke="black" points="266.12,-106.25 266.12,-141.5"/>
<text xml:space="preserve" text-anchor="middle" x="304.12" y="-119.6" font-family="Helvetica,sans-Serif" font-size="12.00" fill="white">Ajay Yadav</text>
</g>
<!-- Slot5 -->
<g id="node5" class="node">
<title>Slot5</title>
<polygon fill="#e74c3c" stroke="black" points="0,-50.5 0,-86.5 347.75,-86.5 347.75,-50.5 0,-50.5"/>
<text xml:space="preserve" text-anchor="middle" x="23.38" y="-64.6" font-family="Helvetica,sans-Serif" font-size="12.00" fill="white">Slot 5</text>
<polyline fill="none" stroke="black" points="46.75,-51.25 46.75,-86.5"/>
<text xml:space="preserve" text-anchor="middle" x="68.62" y="-64.6" font-family="Helvetica,sans-Serif" font-size="12.00" fill="white">BIKE</text>
<polyline fill="none" stroke="black" points="90.5,-51.25 90.5,-86.5"/>
<text xml:space="preserve" text-anchor="middle" x="130.75" y="-64.6" font-family="Helvetica,sans-Serif" font-size="12.00" fill="white">OCCUPIED</text>
<polyline fill="none" stroke="black" points="171,-51.25 171,-86.5"/>
<text xml:space="preserve" text-anchor="middle" x="213.5" y="-64.6" font-family="Helvetica,sans-Serif" font-size="12.00" fill="white">WB20IJ4567</text>
<polyline fill="none" stroke="black" points="256,-51.25 256,-86.5"/>
<text xml:space="preserve" text-anchor="middle" x="301.88" y="-64.6" font-family="Helvetica,sans-Serif" font-size="12.00" fill="white">Debashis Roy</text>
</g>
<!-- Slot7 -->
<g id="node7" class="node">
<title>Slot7</title>
<polygon fill="#e74c3c" stroke="black" points="389,-215.5 389,-251.5 727,-251.5 727,-215.5 389,-215.5"/>
<text xml:space="preserve" text-anchor="middle" x="412.38" y="-229.6" font-family="Helvetica,sans-Serif" font-size="12.00" fill="white">Slot 7</text>
<polyline fill="none" stroke="black" points="435.75,-216.25 435.75,-251.5"/>
<text xml:space="preserve" text-anchor="middle" x="456.88" y="-229.6" font-family="Helvetica,sans-Serif" font-size="12.00" fill="white">CAR</text>
<polyline fill="none" stroke="black" points="478,-216.25 478,-251.5"/>
<text xml:space="preserve" text-anchor="middle" x="518.25" y="-229.6" font-family="Helvetica,sans-Serif" font-size="12.00" fill="white">OCCUPIED</text>
<polyline fill="none" stroke="black" points="558.5,-216.25 558.5,-251.5"/>
<text xml:space="preserve" text-anchor="middle" x="604.38" y="-229.6" font-family="Helvetica,sans-Serif" font-size="12.00" fill="white">MH01XY9999</text>
<polyline fill="none" stroke="black" points="650.25,-216.25 650.25,-251.5"/>
<text xml:space="preserve" text-anchor="middle" x="688.62" y="-229.6" font-family="Helvetica,sans-Serif" font-size="12.00" fill="white">Suresh Iyer</text>
</g>
<!-- Slot8 -->
<g id="node8" class="node">
<title>Slot8</title>
<polygon fill="#e74c3c" stroke="black" points="383.75,-160.5 383.75,-196.5 732.25,-196.5 732.25,-160.5 383.75,-160.5"/>
<text xml:space="preserve" text-anchor="middle" x="407.12" y="-174.6" font-family="Helvetica,sans-Serif" font-size="12.00" fill="white">Slot 8</text>
<polyline fill="none" stroke="black" points="430.5,-161.25 430.5,-196.5"/>
<text xml:space="preserve" text-anchor="middle" x="451.62" y="-174.6" font-family="Helvetica,sans-Serif" font-size="12.00" fill="white">CAR</text>
<polyline fill="none" stroke="black" points="472.75,-161.25 472.75,-196.5"/>
<text xml:space="preserve" text-anchor="middle" x="513" y="-174.6" font-family="Helvetica,sans-Serif" font-size="12.00" fill="white">OCCUPIED</text>
<polyline fill="none" stroke="black" points="553.25,-161.25 553.25,-196.5"/>
<text xml:space="preserve" text-anchor="middle" x="599.88" y="-174.6" font-family="Helvetica,sans-Serif" font-size="12.00" fill="white">MH43CD2345</text>
<polyline fill="none" stroke="black" points="646.5,-161.25 646.5,-196.5"/>
<text xml:space="preserve" text-anchor="middle" x="689.38" y="-174.6" font-family="Helvetica,sans-Serif" font-size="12.00" fill="white">Sneha Desai</text>
</g>
<!-- Slot9 -->
<g id="node9" class="node">
<title>Slot9</title>
<polygon fill="#e74c3c" stroke="black" points="387.88,-105.5 387.88,-141.5 728.12,-141.5 728.12,-105.5 387.88,-105.5"/>
<text xml:space="preserve" text-anchor="middle" x="411.25" y="-119.6" font-family="Helvetica,sans-Serif" font-size="12.00" fill="white">Slot 9</text>
<polyline fill="none" stroke="black" points="434.62,-106.25 434.62,-141.5"/>
<text xml:space="preserve" text-anchor="middle" x="455.75" y="-119.6" font-family="Helvetica,sans-Serif" font-size="12.00" fill="white">CAR</text>
<polyline fill="none" stroke="black" points="476.88,-106.25 476.88,-141.5"/>
<text xml:space="preserve" text-anchor="middle" x="517.12" y="-119.6" font-family="Helvetica,sans-Serif" font-size="12.00" fill="white">OCCUPIED</text>
<polyline fill="none" stroke="black" points="557.38,-106.25 557.38,-141.5"/>
<text xml:space="preserve" text-anchor="middle" x="602.12" y="-119.6" font-family="Helvetica,sans-Serif" font-size="12.00" fill="white">RJ14GH0123</text>
<polyline fill="none" stroke="black" points="646.88,-106.25 646.88,-141.5"/>
<text xml:space="preserve" text-anchor="middle" x="687.5" y="-119.6" font-family="Helvetica,sans-Serif" font-size="12.00" fill="white">Kavita Joshi</text>
</g>
<!-- Slot10 -->
<g id="node10" class="node">
<title>Slot10</title>
<polygon fill="#e74c3c" stroke="black" points="385.62,-50.5 385.62,-86.5 730.38,-86.5 730.38,-50.5 385.62,-50.5"/>
<text xml:space="preserve" text-anchor="middle" x="412.38" y="-64.6" font-family="Helvetica,sans-Serif" font-size="12.00" fill="white">Slot 10</text>
<polyline fill="none" stroke="black" points="439.12,-51.25 439.12,-86.5"/>
<text xml:space="preserve" text-anchor="middle" x="460.25" y="-64.6" font-family="Helvetica,sans-Serif" font-size="12.00" fill="white">CAR</text>
<polyline fill="none" stroke="black" points="481.38,-51.25 481.38,-86.5"/>
<text xml:space="preserve" text-anchor="middle" x="521.62" y="-64.6" font-family="Helvetica,sans-Serif" font-size="12.00" fill="white">OCCUPIED</text>
<polyline fill="none" stroke="black" points="561.88,-51.25 561.88,-86.5"/>
<text xml:space="preserve" text-anchor="middle" x="606.62" y="-64.6" font-family="Helvetica,sans-Serif" font-size="12.00" fill="white">HR26KL8901</text>
<polyline fill="none" stroke="black" points="651.38,-51.25 651.38,-86.5"/>
<text xml:space="preserve" text-anchor="middle" x="690.88" y="-64.6" font-family="Helvetica,sans-Serif" font-size="12.00" fill="white">Pooja Malik</text>
</g>
<!-- Legend -->
<g id="node11" class="node">
<title>Legend</title>
<text xml:space="preserve" text-anchor="middle" x="173.88" y="-360.48" font-family="Helvetica,sans-Serif" font-size="12.00">Legend:</text>
<text xml:space="preserve" text-anchor="middle" x="173.88" y="-346.23" font-family="Helvetica,sans-Serif" font-size="12.00">GREEN = Free Slot</text>
<text xml:space="preserve" text-anchor="middle" x="173.88" y="-331.98" font-family="Helvetica,sans-Serif" font-size="12.00">RED = Occupied Slot</text>
</g>
</g>
</svg>
