<?xml version="1.0" encoding="UTF-8" standalone="no"?>
<!DOCTYPE svg PUBLIC "-//W3C//DTD SVG 1.1//EN"
 "http://www.w3.org/Graphics/SVG/1.1/DTD/svg11.dtd">
<!-- Generated by graphviz version 14.1.5 (20260411.2331)
 -->
<!-- Title: Queue Pages: 1 -->
<svg width="1997pt" height="285pt"
 viewBox="0.00 0.00 1997.00 285.00" xmlns="http://www.w3.org/2000/svg" xmlns:xlink="http://www.w3.org/1999/xlink">
<g id="graph0" class="graph" transform="scale(1 1) rotate(0) translate(36 249.31)">
<title>Queue</title>
<polygon fill="#f8f9fa" stroke="none" points="-36,36 -36,-249.31 1961.24,-249.31 1961.24,36 -36,36"/>
<text xml:space="preserve" text-anchor="middle" x="962.62" y="-26.3" font-family="Helvetica,sans-Serif" font-size="16.00">WAITING QUEUE (FIFO &#45;&#45; First Come First Served)</text>
<text xml:space="preserve" text-anchor="middle" x="962.62" y="-7.55" font-family="Helvetica,sans-Serif" font-size="16.00">Vehicles waiting for a free slot</text>
<!-- FRONT -->
<g id="node1" class="node">
<title>FRONT</title>
<ellipse fill="#3498db" stroke="black" cx="69.12" cy="-133.31" rx="69.12" ry="25.81"/>
<text xml:space="preserve" text-anchor="middle" x="69.12" y="-136.16" font-family="Helvetica,sans-Serif" font-size="12.00" fill="white">FRONT</text>
<text xml:space="preserve" text-anchor="middle" x="69.12" y="-121.91" font-family="Helvetica,sans-Serif" font-size="12.00" fill="white">(dequeue here)</text>
</g>
<!-- W1 -->
<g id="node3" class="node">
<title>W1</title>
<polygon fill="#3498db" stroke="black" points="186.99,-115.31 186.99,-151.31 453.49,-151.31 453.49,-115.31 186.99,-115.31"/>
<text xml:space="preserve" text-anchor="middle" x="210.36" y="-129.41" font-family="Helvetica,sans-Serif" font-size="12.00" fill="white">Pos 1</text>
<polyline fill="none" stroke="black" points="233.74,-116.06 233.74,-151.31"/>
<text xml:space="preserve" text-anchor="middle" x="280.36" y="-129.41" font-family="Helvetica,sans-Serif" font-size="12.00" fill="white">MH05HH1234</text>
<polyline fill="none" stroke="black" points="326.99,-116.06 326.99,-151.31"/>
<text xml:space="preserve" text-anchor="middle" x="369.11" y="-129.41" font-family="Helvetica,sans-Serif" font-size="12.00" fill="white">Meet Rathod</text>
<polyline fill="none" stroke="black" points="411.24,-116.06 411.24,-151.31"/>
<text xml:space="preserve" text-anchor="middle" x="432.36" y="-129.41" font-family="Helvetica,sans-Serif" font-size="12.00" fill="white">CAR</text>
</g>
<!-- FRONT&#45;&gt;W1 -->
<g id="edge1" class="edge">
<title>FRONT&#45;&gt;W1</title>
<path fill="none" stroke="black" d="M138.52,-133.31C150.22,-133.31 162.75,-133.31 175.56,-133.31"/>
<polygon fill="black" stroke="black" points="175.36,-136.81 185.36,-133.31 175.36,-129.81 175.36,-136.81"/>
<text xml:space="preserve" text-anchor="middle" x="162.61" y="-136.51" font-family="Times New Roman,serif" font-size="14.00">&#45;&gt;</text>
</g>
<!-- REAR -->
<g id="node2" class="node">
<title>REAR</title>
<ellipse fill="#9b59b6" stroke="black" cx="1349.99" cy="-71.31" rx="69.12" ry="25.81"/>
<text xml:space="preserve" text-anchor="middle" x="1349.99" y="-74.16" font-family="Helvetica,sans-Serif" font-size="12.00" fill="white">REAR</text>
<text xml:space="preserve" text-anchor="middle" x="1349.99" y="-59.91" font-family="Helvetica,sans-Serif" font-size="12.00" fill="white">(enqueue here)</text>
</g>
<!-- W5 -->
<g id="node7" class="node">
<title>W5</title>
<polygon fill="#3498db" stroke="black" points="1552.24,-73.31 1552.24,-109.31 1811.99,-109.31 1811.99,-73.31 1552.24,-73.31"/>
<text xml:space="preserve" text-anchor="middle" x="1575.61" y="-87.41" font-family="Helvetica,sans-Serif" font-size="12.00" fill="white">Pos 5</text>
<polyline fill="none" stroke="black" points="1598.99,-74.06 1598.99,-109.31"/>
<text xml:space="preserve" text-anchor="middle" x="1645.61" y="-87.41" font-family="Helvetica,sans-Serif" font-size="12.00" fill="white">MH09HH1234</text>
<polyline fill="none" stroke="black" points="1692.24,-74.06 1692.24,-109.31"/>
<text xml:space="preserve" text-anchor="middle" x="1730.99" y="-87.41" font-family="Helvetica,sans-Serif" font-size="12.00" fill="white">Prem Mane</text>
<polyline fill="none" stroke="black" points="1769.74,-74.06 1769.74,-109.31"/>
<text xml:space="preserve" text-anchor="middle" x="1790.86" y="-87.41" font-family="Helvetica,sans-Serif" font-size="12.00" fill="white">CAR</text>
</g>
<!-- REAR&#45;&gt;W5 -->
<g id="edge7" class="edge">
<title>REAR&#45;&gt;W5</title>
<path fill="none" stroke="#9b59b6" stroke-dasharray="5,2" d="M1418.59,-75.4C1453.83,-77.54 1498.3,-80.23 1540.58,-82.8"/>
<polygon fill="#9b59b6" stroke="#9b59b6" points="1540.15,-86.28 1550.34,-83.39 1540.57,-79.29 1540.15,-86.28"/>
<text xml:space="preserve" text-anchor="middle" x="1522.61" y="-85.11" font-family="Times New Roman,serif" font-size="14.00">&#45;&gt;</text>
</g>
<!-- W2 -->
<g id="node4" class="node">
<title>W2</title>
<polygon fill="#3498db" stroke="black" points="512.74,-115.31 512.74,-151.31 790.49,-151.31 790.49,-115.31 512.74,-115.31"/>
<text xml:space="preserve" text-anchor="middle" x="536.11" y="-129.41" font-family="Helvetica,sans-Serif" font-size="12.00" fill="white">Pos 2</text>
<polyline fill="none" stroke="black" points="559.49,-116.06 559.49,-151.31"/>
<text xml:space="preserve" text-anchor="middle" x="606.11" y="-129.41" font-family="Helvetica,sans-Serif" font-size="12.00" fill="white">MH06HH1234</text>
<polyline fill="none" stroke="black" points="652.74,-116.06 652.74,-151.31"/>
<text xml:space="preserve" text-anchor="middle" x="700.49" y="-129.41" font-family="Helvetica,sans-Serif" font-size="12.00" fill="white">ANZAR KHAN</text>
<polyline fill="none" stroke="black" points="748.24,-116.06 748.24,-151.31"/>
<text xml:space="preserve" text-anchor="middle" x="769.36" y="-129.41" font-family="Helvetica,sans-Serif" font-size="12.00" fill="white">CAR</text>
</g>
<!-- W1&#45;&gt;W2 -->
<g id="edge2" class="edge">
<title>W1&#45;&gt;W2</title>
<path fill="none" stroke="black" d="M453.79,-133.31C469.32,-133.31 485.25,-133.31 501,-133.31"/>
<polygon fill="black" stroke="black" points="500.91,-136.81 510.91,-133.31 500.91,-129.81 500.91,-136.81"/>
<text xml:space="preserve" text-anchor="middle" x="483.11" y="-136.51" font-family="Times New Roman,serif" font-size="14.00">next</text>
</g>
<!-- W3 -->
<g id="node5" class="node">
<title>W3</title>
<polygon fill="#3498db" stroke="black" points="849.74,-115.31 849.74,-151.31 1147.74,-151.31 1147.74,-115.31 849.74,-115.31"/>
<text xml:space="preserve" text-anchor="middle" x="873.11" y="-129.41" font-family="Helvetica,sans-Serif" font-size="12.00" fill="white">Pos 3</text>
<polyline fill="none" stroke="black" points="896.49,-116.06 896.49,-151.31"/>
<text xml:space="preserve" text-anchor="middle" x="943.11" y="-129.41" font-family="Helvetica,sans-Serif" font-size="12.00" fill="white">MH07HH1234</text>
<polyline fill="none" stroke="black" points="989.74,-116.06 989.74,-151.31"/>
<text xml:space="preserve" text-anchor="middle" x="1046.86" y="-129.41" font-family="Helvetica,sans-Serif" font-size="12.00" fill="white">ADITIYA MAURYA</text>
<polyline fill="none" stroke="black" points="1103.99,-116.06 1103.99,-151.31"/>
<text xml:space="preserve" text-anchor="middle" x="1125.86" y="-129.41" font-family="Helvetica,sans-Serif" font-size="12.00" fill="white">BIKE</text>
</g>
<!-- W2&#45;&gt;W3 -->
<g id="edge3" class="edge">
<title>W2&#45;&gt;W3</title>
<path fill="none" stroke="black" d="M790.5,-133.31C806.07,-133.31 822.02,-133.31 837.83,-133.31"/>
<polygon fill="black" stroke="black" points="837.8,-136.81 847.8,-133.31 837.8,-129.81 837.8,-136.81"/>
<text xml:space="preserve" text-anchor="middle" x="820.11" y="-136.51" font-family="Times New Roman,serif" font-size="14.00">next</text>
</g>
<!-- W4 -->
<g id="node6" class="node">
<title>W4</title>
<polygon fill="#3498db" stroke="black" points="1206.99,-115.31 1206.99,-151.31 1492.99,-151.31 1492.99,-115.31 1206.99,-115.31"/>
<text xml:space="preserve" text-anchor="middle" x="1230.36" y="-129.41" font-family="Helvetica,sans-Serif" font-size="12.00" fill="white">Pos 4</text>
<polyline fill="none" stroke="black" points="1253.74,-116.06 1253.74,-151.31"/>
<text xml:space="preserve" text-anchor="middle" x="1300.36" y="-129.41" font-family="Helvetica,sans-Serif" font-size="12.00" fill="white">MH08HH1234</text>
<polyline fill="none" stroke="black" points="1346.99,-116.06 1346.99,-151.31"/>
<text xml:space="preserve" text-anchor="middle" x="1398.86" y="-129.41" font-family="Helvetica,sans-Serif" font-size="12.00" fill="white">Daksh MAURYA</text>
<polyline fill="none" stroke="black" points="1450.74,-116.06 1450.74,-151.31"/>
<text xml:space="preserve" text-anchor="middle" x="1471.86" y="-129.41" font-family="Helvetica,sans-Serif" font-size="12.00" fill="white">CAR</text>
</g>
<!-- W3&#45;&gt;W4 -->
<g id="edge4" class="edge">
<title>W3&#45;&gt;W4</title>
<path fill="none" stroke="black" d="M1148.11,-133.31C1163.73,-133.31 1179.64,-133.31 1195.32,-133.31"/>
<polygon fill="black" stroke="black" points="1195.18,-136.81 1205.18,-133.31 1195.18,-129.81 1195.18,-136.81"/>
<text xml:space="preserve" text-anchor="middle" x="1177.36" y="-136.51" font-family="Times New Roman,serif" font-size="14.00">next</text>
</g>
<!-- W4&#45;&gt;W5 -->
<g id="edge5" class="edge">
<title>W4&#45;&gt;W5</title>
<path fill="none" stroke="black" d="M1493.39,-115.19C1509.04,-113.2 1524.98,-111.17 1540.61,-109.18"/>
<polygon fill="black" stroke="black" points="1540.96,-112.67 1550.43,-107.94 1540.07,-105.73 1540.96,-112.67"/>
<text xml:space="preserve" text-anchor="middle" x="1522.61" y="-115.51" font-family="Times New Roman,serif" font-size="14.00">next</text>
</g>
<!-- NULL_Q -->
<g id="node8" class="node">
<title>NULL_Q</title>
<polygon fill="#95a5a6" stroke="black" points="1925.24,-109.31 1871.24,-109.31 1871.24,-73.31 1925.24,-73.31 1925.24,-109.31"/>
<text xml:space="preserve" text-anchor="middle" x="1898.24" y="-87.03" font-family="Helvetica,sans-Serif" font-size="12.00" fill="white">NULL</text>
</g>
<!-- W5&#45;&gt;NULL_Q -->
<g id="edge6" class="edge">
<title>W5&#45;&gt;NULL_Q</title>
<path fill="none" stroke="black" d="M1812.3,-91.31C1829.52,-91.31 1845.94,-91.31 1859.67,-91.31"/>
<polygon fill="black" stroke="black" points="1859.48,-94.81 1869.48,-91.31 1859.48,-87.81 1859.48,-94.81"/>
<text xml:space="preserve" text-anchor="middle" x="1841.61" y="-94.51" font-family="Times New Roman,serif" font-size="14.00">next</text>
</g>
<!-- Count -->
<g id="node9" class="node">
<title>Count</title>
<text xml:space="preserve" text-anchor="middle" x="69.12" y="-191.03" font-family="Helvetica,sans-Serif" font-size="12.00">Total Waiting: 5 / 20</text>
</g>
</g>
</svg>
