<?xml version="1.0" encoding="UTF-8" standalone="no"?>
<!DOCTYPE svg PUBLIC "-//W3C//DTD SVG 1.1//EN"
 "http://www.w3.org/Graphics/SVG/1.1/DTD/svg11.dtd">
<!-- Generated by graphviz version 14.1.5 (20260411.2331)
 -->
<!-- Title: Stack Pages: 1 -->
<svg width="406pt" height="2993pt"
 viewBox="0.00 0.00 406.00 2993.00" xmlns="http://www.w3.org/2000/svg" xmlns:xlink="http://www.w3.org/1999/xlink">
<g id="graph0" class="graph" transform="scale(1 1) rotate(0) translate(36 2957)">
<title>Stack</title>
<polygon fill="#f8f9fa" stroke="none" points="-36,36 -36,-2957 370.45,-2957 370.45,36 -36,36"/>
<text xml:space="preserve" text-anchor="middle" x="167.22" y="-26.3" font-family="Helvetica,sans-Serif" font-size="16.00">LOG STACK (LIFO &#45;&#45; Last In First Out)</text>
<text xml:space="preserve" text-anchor="middle" x="167.22" y="-7.55" font-family="Helvetica,sans-Serif" font-size="16.00">Entry/Exit history &#45;&#45; most recent at TOP</text>
<!-- TOP -->
<g id="node1" class="node">
<title>TOP</title>
<ellipse fill="#e67e22" stroke="black" cx="79.2" cy="-2896.25" rx="79.2" ry="24.75"/>
<text xml:space="preserve" text-anchor="middle" x="79.2" y="-2899.3" font-family="Helvetica,sans-Serif" font-size="11.00" fill="white">TOP (index=14)</text>
<text xml:space="preserve" text-anchor="middle" x="79.2" y="-2885.8" font-family="Helvetica,sans-Serif" font-size="11.00" fill="white">&lt;&#45; PUSH/POP here</text>
</g>
<!-- S14 -->
<g id="node2" class="node">
<title>S14</title>
<polygon fill="#2ecc71" stroke="black" points="21.32,-2689.5 21.32,-2818.5 137.07,-2818.5 137.07,-2689.5 21.32,-2689.5"/>
<text xml:space="preserve" text-anchor="middle" x="79.2" y="-2804.05" font-family="Helvetica,sans-Serif" font-size="11.00" fill="white">ENTRY [index=14]</text>
<polyline fill="none" stroke="black" points="21.32,-2797 137.07,-2797"/>
<text xml:space="preserve" text-anchor="middle" x="79.2" y="-2782.55" font-family="Helvetica,sans-Serif" font-size="11.00" fill="white">Slot 7</text>
<polyline fill="none" stroke="black" points="21.32,-2775.5 137.07,-2775.5"/>
<text xml:space="preserve" text-anchor="middle" x="79.2" y="-2761.05" font-family="Helvetica,sans-Serif" font-size="11.00" fill="white">MH01XY9999</text>
<polyline fill="none" stroke="black" points="21.32,-2754 137.07,-2754"/>
<text xml:space="preserve" text-anchor="middle" x="79.2" y="-2739.55" font-family="Helvetica,sans-Serif" font-size="11.00" fill="white">CAR</text>
<polyline fill="none" stroke="black" points="21.32,-2732.5 137.07,-2732.5"/>
<text xml:space="preserve" text-anchor="middle" x="79.2" y="-2718.05" font-family="Helvetica,sans-Serif" font-size="11.00" fill="white">Fee: Rs.0</text>
<polyline fill="none" stroke="black" points="21.32,-2711 137.07,-2711"/>
<text xml:space="preserve" text-anchor="middle" x="79.2" y="-2696.55" font-family="Helvetica,sans-Serif" font-size="11.00" fill="white">2026&#45;05&#45;09 14:11:30</text>
</g>
<!-- TOP&#45;&gt;S14 -->
<g id="edge1" class="edge">
<title>TOP&#45;&gt;S14</title>
<path fill="none" stroke="black" d="M79.2,-2871.14C79.2,-2859.59 79.2,-2845.07 79.2,-2830.24"/>
<polygon fill="black" stroke="black" points="82.7,-2830.39 79.2,-2820.39 75.7,-2830.39 82.7,-2830.39"/>
<text xml:space="preserve" text-anchor="middle" x="119.7" y="-2840.2" font-family="Times New Roman,serif" font-size="14.00">top points here</text>
</g>
<!-- S13 -->
<g id="node3" class="node">
<title>S13</title>
<polygon fill="#e74c3c" stroke="black" points="21.32,-2507 21.32,-2636 137.07,-2636 137.07,-2507 21.32,-2507"/>
<text xml:space="preserve" text-anchor="middle" x="79.2" y="-2621.55" font-family="Helvetica,sans-Serif" font-size="11.00" fill="white">EXIT [index=13]</text>
<polyline fill="none" stroke="black" points="21.32,-2614.5 137.07,-2614.5"/>
<text xml:space="preserve" text-anchor="middle" x="79.2" y="-2600.05" font-family="Helvetica,sans-Serif" font-size="11.00" fill="white">Slot 7</text>
<polyline fill="none" stroke="black" points="21.32,-2593 137.07,-2593"/>
<text xml:space="preserve" text-anchor="middle" x="79.2" y="-2578.55" font-family="Helvetica,sans-Serif" font-size="11.00" fill="white">TN09XY3456</text>
<polyline fill="none" stroke="black" points="21.32,-2571.5 137.07,-2571.5"/>
<text xml:space="preserve" text-anchor="middle" x="79.2" y="-2557.05" font-family="Helvetica,sans-Serif" font-size="11.00" fill="white">CAR</text>
<polyline fill="none" stroke="black" points="21.32,-2550 137.07,-2550"/>
<text xml:space="preserve" text-anchor="middle" x="79.2" y="-2535.55" font-family="Helvetica,sans-Serif" font-size="11.00" fill="white">Fee: Rs.439100</text>
<polyline fill="none" stroke="black" points="21.32,-2528.5 137.07,-2528.5"/>
<text xml:space="preserve" text-anchor="middle" x="79.2" y="-2514.05" font-family="Helvetica,sans-Serif" font-size="11.00" fill="white">2026&#45;05&#45;09 14:11:30</text>
</g>
<!-- S14&#45;&gt;S13 -->
<g id="edge2" class="edge">
<title>S14&#45;&gt;S13</title>
<path fill="none" stroke="black" d="M79.2,-2689.11C79.2,-2675.72 79.2,-2661.48 79.2,-2647.72"/>
<polygon fill="black" stroke="black" points="82.7,-2647.82 79.2,-2637.82 75.7,-2647.82 82.7,-2647.82"/>
<text xml:space="preserve" text-anchor="middle" x="95.7" y="-2657.7" font-family="Times New Roman,serif" font-size="14.00">below</text>
</g>
<!-- S12 -->
<g id="node4" class="node">
<title>S12</title>
<polygon fill="#e74c3c" stroke="black" points="20.95,-2324.5 20.95,-2453.5 137.45,-2453.5 137.45,-2324.5 20.95,-2324.5"/>
<text xml:space="preserve" text-anchor="middle" x="79.2" y="-2439.05" font-family="Helvetica,sans-Serif" font-size="11.00" fill="white">EXIT [index=12]</text>
<polyline fill="none" stroke="black" points="20.95,-2432 137.45,-2432"/>
<text xml:space="preserve" text-anchor="middle" x="79.2" y="-2417.55" font-family="Helvetica,sans-Serif" font-size="11.00" fill="white">Slot 3</text>
<polyline fill="none" stroke="black" points="20.95,-2410.5 137.45,-2410.5"/>
<text xml:space="preserve" text-anchor="middle" x="79.2" y="-2396.05" font-family="Helvetica,sans-Serif" font-size="11.00" fill="white">GJ01HH7890</text>
<polyline fill="none" stroke="black" points="20.95,-2389 137.45,-2389"/>
<text xml:space="preserve" text-anchor="middle" x="79.2" y="-2374.55" font-family="Helvetica,sans-Serif" font-size="11.00" fill="white">BIKE</text>
<polyline fill="none" stroke="black" points="20.95,-2367.5 137.45,-2367.5"/>
<text xml:space="preserve" text-anchor="middle" x="79.2" y="-2353.05" font-family="Helvetica,sans-Serif" font-size="11.00" fill="white">Fee: Rs.175640</text>
<polyline fill="none" stroke="black" points="20.95,-2346 137.45,-2346"/>
<text xml:space="preserve" text-anchor="middle" x="79.2" y="-2331.55" font-family="Helvetica,sans-Serif" font-size="11.00" fill="white">2026&#45;05&#45;09 14:10:43</text>
</g>
<!-- S13&#45;&gt;S12 -->
<g id="edge3" class="edge">
<title>S13&#45;&gt;S12</title>
<path fill="none" stroke="black" d="M79.2,-2506.61C79.2,-2493.22 79.2,-2478.98 79.2,-2465.22"/>
<polygon fill="black" stroke="black" points="82.7,-2465.32 79.2,-2455.32 75.7,-2465.32 82.7,-2465.32"/>
<text xml:space="preserve" text-anchor="middle" x="95.7" y="-2475.2" font-family="Times New Roman,serif" font-size="14.00">below</text>
</g>
<!-- S11 -->
<g id="node5" class="node">
<title>S11</title>
<polygon fill="#2ecc71" stroke="black" points="20.95,-2142 20.95,-2271 137.45,-2271 137.45,-2142 20.95,-2142"/>
<text xml:space="preserve" text-anchor="middle" x="79.2" y="-2256.55" font-family="Helvetica,sans-Serif" font-size="11.00" fill="white">ENTRY [index=11]</text>
<polyline fill="none" stroke="black" points="20.95,-2249.5 137.45,-2249.5"/>
<text xml:space="preserve" text-anchor="middle" x="79.2" y="-2235.05" font-family="Helvetica,sans-Serif" font-size="11.00" fill="white">Slot 1</text>
<polyline fill="none" stroke="black" points="20.95,-2228 137.45,-2228"/>
<text xml:space="preserve" text-anchor="middle" x="79.2" y="-2213.55" font-family="Helvetica,sans-Serif" font-size="11.00" fill="white">PB10ZZ1111</text>
<polyline fill="none" stroke="black" points="20.95,-2206.5 137.45,-2206.5"/>
<text xml:space="preserve" text-anchor="middle" x="79.2" y="-2192.05" font-family="Helvetica,sans-Serif" font-size="11.00" fill="white">BIKE</text>
<polyline fill="none" stroke="black" points="20.95,-2185 137.45,-2185"/>
<text xml:space="preserve" text-anchor="middle" x="79.2" y="-2170.55" font-family="Helvetica,sans-Serif" font-size="11.00" fill="white">Fee: Rs.0</text>
<polyline fill="none" stroke="black" points="20.95,-2163.5 137.45,-2163.5"/>
<text xml:space="preserve" text-anchor="middle" x="79.2" y="-2149.05" font-family="Helvetica,sans-Serif" font-size="11.00" fill="white">2026&#45;05&#45;09 14:09:23</text>
</g>
<!-- S12&#45;&gt;S11 -->
<g id="edge4" class="edge">
<title>S12&#45;&gt;S11</title>
<path fill="none" stroke="black" d="M79.2,-2324.11C79.2,-2310.72 79.2,-2296.48 79.2,-2282.72"/>
<polygon fill="black" stroke="black" points="82.7,-2282.82 79.2,-2272.82 75.7,-2282.82 82.7,-2282.82"/>
<text xml:space="preserve" text-anchor="middle" x="95.7" y="-2292.7" font-family="Times New Roman,serif" font-size="14.00">below</text>
</g>
<!-- S10 -->
<g id="node6" class="node">
<title>S10</title>
<polygon fill="#e74c3c" stroke="black" points="20.95,-1959.5 20.95,-2088.5 137.45,-2088.5 137.45,-1959.5 20.95,-1959.5"/>
<text xml:space="preserve" text-anchor="middle" x="79.2" y="-2074.05" font-family="Helvetica,sans-Serif" font-size="11.00" fill="white">EXIT [index=10]</text>
<polyline fill="none" stroke="black" points="20.95,-2067 137.45,-2067"/>
<text xml:space="preserve" text-anchor="middle" x="79.2" y="-2052.55" font-family="Helvetica,sans-Serif" font-size="11.00" fill="white">Slot 1</text>
<polyline fill="none" stroke="black" points="20.95,-2045.5 137.45,-2045.5"/>
<text xml:space="preserve" text-anchor="middle" x="79.2" y="-2031.05" font-family="Helvetica,sans-Serif" font-size="11.00" fill="white">MH12AB1234</text>
<polyline fill="none" stroke="black" points="20.95,-2024 137.45,-2024"/>
<text xml:space="preserve" text-anchor="middle" x="79.2" y="-2009.55" font-family="Helvetica,sans-Serif" font-size="11.00" fill="white">BIKE</text>
<polyline fill="none" stroke="black" points="20.95,-2002.5 137.45,-2002.5"/>
<text xml:space="preserve" text-anchor="middle" x="79.2" y="-1988.05" font-family="Helvetica,sans-Serif" font-size="11.00" fill="white">Fee: Rs.175660</text>
<polyline fill="none" stroke="black" points="20.95,-1981 137.45,-1981"/>
<text xml:space="preserve" text-anchor="middle" x="79.2" y="-1966.55" font-family="Helvetica,sans-Serif" font-size="11.00" fill="white">2026&#45;05&#45;09 14:09:23</text>
</g>
<!-- S11&#45;&gt;S10 -->
<g id="edge5" class="edge">
<title>S11&#45;&gt;S10</title>
<path fill="none" stroke="black" d="M79.2,-2141.61C79.2,-2128.22 79.2,-2113.98 79.2,-2100.22"/>
<polygon fill="black" stroke="black" points="82.7,-2100.32 79.2,-2090.32 75.7,-2100.32 82.7,-2100.32"/>
<text xml:space="preserve" text-anchor="middle" x="95.7" y="-2110.2" font-family="Times New Roman,serif" font-size="14.00">below</text>
</g>
<!-- S9 -->
<g id="node7" class="node">
<title>S9</title>
<polygon fill="#2ecc71" stroke="black" points="20.95,-1777 20.95,-1906 137.45,-1906 137.45,-1777 20.95,-1777"/>
<text xml:space="preserve" text-anchor="middle" x="79.2" y="-1891.55" font-family="Helvetica,sans-Serif" font-size="11.00" fill="white">ENTRY [index=9]</text>
<polyline fill="none" stroke="black" points="20.95,-1884.5 137.45,-1884.5"/>
<text xml:space="preserve" text-anchor="middle" x="79.2" y="-1870.05" font-family="Helvetica,sans-Serif" font-size="11.00" fill="white">Slot 10</text>
<polyline fill="none" stroke="black" points="20.95,-1863 137.45,-1863"/>
<text xml:space="preserve" text-anchor="middle" x="79.2" y="-1848.55" font-family="Helvetica,sans-Serif" font-size="11.00" fill="white">HR26KL8901</text>
<polyline fill="none" stroke="black" points="20.95,-1841.5 137.45,-1841.5"/>
<text xml:space="preserve" text-anchor="middle" x="79.2" y="-1827.05" font-family="Helvetica,sans-Serif" font-size="11.00" fill="white">CAR</text>
<polyline fill="none" stroke="black" points="20.95,-1820 137.45,-1820"/>
<text xml:space="preserve" text-anchor="middle" x="79.2" y="-1805.55" font-family="Helvetica,sans-Serif" font-size="11.00" fill="white">Fee: Rs.0</text>
<polyline fill="none" stroke="black" points="20.95,-1798.5 137.45,-1798.5"/>
<text xml:space="preserve" text-anchor="middle" x="79.2" y="-1784.05" font-family="Helvetica,sans-Serif" font-size="11.00" fill="white">2025&#45;05&#45;08 17:26:40</text>
</g>
<!-- S10&#45;&gt;S9 -->
<g id="edge6" class="edge">
<title>S10&#45;&gt;S9</title>
<path fill="none" stroke="black" d="M79.2,-1959.11C79.2,-1945.72 79.2,-1931.48 79.2,-1917.72"/>
<polygon fill="black" stroke="black" points="82.7,-1917.82 79.2,-1907.82 75.7,-1917.82 82.7,-1917.82"/>
<text xml:space="preserve" text-anchor="middle" x="95.7" y="-1927.7" font-family="Times New Roman,serif" font-size="14.00">below</text>
</g>
<!-- S8 -->
<g id="node8" class="node">
<title>S8</title>
<polygon fill="#2ecc71" stroke="black" points="20.95,-1594.5 20.95,-1723.5 137.45,-1723.5 137.45,-1594.5 20.95,-1594.5"/>
<text xml:space="preserve" text-anchor="middle" x="79.2" y="-1709.05" font-family="Helvetica,sans-Serif" font-size="11.00" fill="white">ENTRY [index=8]</text>
<polyline fill="none" stroke="black" points="20.95,-1702 137.45,-1702"/>
<text xml:space="preserve" text-anchor="middle" x="79.2" y="-1687.55" font-family="Helvetica,sans-Serif" font-size="11.00" fill="white">Slot 9</text>
<polyline fill="none" stroke="black" points="20.95,-1680.5 137.45,-1680.5"/>
<text xml:space="preserve" text-anchor="middle" x="79.2" y="-1666.05" font-family="Helvetica,sans-Serif" font-size="11.00" fill="white">RJ14GH0123</text>
<polyline fill="none" stroke="black" points="20.95,-1659 137.45,-1659"/>
<text xml:space="preserve" text-anchor="middle" x="79.2" y="-1644.55" font-family="Helvetica,sans-Serif" font-size="11.00" fill="white">CAR</text>
<polyline fill="none" stroke="black" points="20.95,-1637.5 137.45,-1637.5"/>
<text xml:space="preserve" text-anchor="middle" x="79.2" y="-1623.05" font-family="Helvetica,sans-Serif" font-size="11.00" fill="white">Fee: Rs.0</text>
<polyline fill="none" stroke="black" points="20.95,-1616 137.45,-1616"/>
<text xml:space="preserve" text-anchor="middle" x="79.2" y="-1601.55" font-family="Helvetica,sans-Serif" font-size="11.00" fill="white">2025&#45;05&#45;08 17:16:40</text>
</g>
<!-- S9&#45;&gt;S8 -->
<g id="edge7" class="edge">
<title>S9&#45;&gt;S8</title>
<path fill="none" stroke="black" d="M79.2,-1776.61C79.2,-1763.22 79.2,-1748.98 79.2,-1735.22"/>
<polygon fill="black" stroke="black" points="82.7,-1735.32 79.2,-1725.32 75.7,-1735.32 82.7,-1735.32"/>
<text xml:space="preserve" text-anchor="middle" x="95.7" y="-1745.2" font-family="Times New Roman,serif" font-size="14.00">below</text>
</g>
<!-- S7 -->
<g id="node9" class="node">
<title>S7</title>
<polygon fill="#2ecc71" stroke="black" points="20.95,-1412 20.95,-1541 137.45,-1541 137.45,-1412 20.95,-1412"/>
<text xml:space="preserve" text-anchor="middle" x="79.2" y="-1526.55" font-family="Helvetica,sans-Serif" font-size="11.00" fill="white">ENTRY [index=7]</text>
<polyline fill="none" stroke="black" points="20.95,-1519.5 137.45,-1519.5"/>
<text xml:space="preserve" text-anchor="middle" x="79.2" y="-1505.05" font-family="Helvetica,sans-Serif" font-size="11.00" fill="white">Slot 8</text>
<polyline fill="none" stroke="black" points="20.95,-1498 137.45,-1498"/>
<text xml:space="preserve" text-anchor="middle" x="79.2" y="-1483.55" font-family="Helvetica,sans-Serif" font-size="11.00" fill="white">MH43CD2345</text>
<polyline fill="none" stroke="black" points="20.95,-1476.5 137.45,-1476.5"/>
<text xml:space="preserve" text-anchor="middle" x="79.2" y="-1462.05" font-family="Helvetica,sans-Serif" font-size="11.00" fill="white">CAR</text>
<polyline fill="none" stroke="black" points="20.95,-1455 137.45,-1455"/>
<text xml:space="preserve" text-anchor="middle" x="79.2" y="-1440.55" font-family="Helvetica,sans-Serif" font-size="11.00" fill="white">Fee: Rs.0</text>
<polyline fill="none" stroke="black" points="20.95,-1433.5 137.45,-1433.5"/>
<text xml:space="preserve" text-anchor="middle" x="79.2" y="-1419.05" font-family="Helvetica,sans-Serif" font-size="11.00" fill="white">2025&#45;05&#45;08 17:06:40</text>
</g>
<!-- S8&#45;&gt;S7 -->
<g id="edge8" class="edge">
<title>S8&#45;&gt;S7</title>
<path fill="none" stroke="black" d="M79.2,-1594.11C79.2,-1580.72 79.2,-1566.48 79.2,-1552.72"/>
<polygon fill="black" stroke="black" points="82.7,-1552.82 79.2,-1542.82 75.7,-1552.82 82.7,-1552.82"/>
<text xml:space="preserve" text-anchor="middle" x="95.7" y="-1562.7" font-family="Times New Roman,serif" font-size="14.00">below</text>
</g>
<!-- S6 -->
<g id="node10" class="node">
<title>S6</title>
<polygon fill="#2ecc71" stroke="black" points="20.95,-1229.5 20.95,-1358.5 137.45,-1358.5 137.45,-1229.5 20.95,-1229.5"/>
<text xml:space="preserve" text-anchor="middle" x="79.2" y="-1344.05" font-family="Helvetica,sans-Serif" font-size="11.00" fill="white">ENTRY [index=6]</text>
<polyline fill="none" stroke="black" points="20.95,-1337 137.45,-1337"/>
<text xml:space="preserve" text-anchor="middle" x="79.2" y="-1322.55" font-family="Helvetica,sans-Serif" font-size="11.00" fill="white">Slot 7</text>
<polyline fill="none" stroke="black" points="20.95,-1315.5 137.45,-1315.5"/>
<text xml:space="preserve" text-anchor="middle" x="79.2" y="-1301.05" font-family="Helvetica,sans-Serif" font-size="11.00" fill="white">TN09XY3456</text>
<polyline fill="none" stroke="black" points="20.95,-1294 137.45,-1294"/>
<text xml:space="preserve" text-anchor="middle" x="79.2" y="-1279.55" font-family="Helvetica,sans-Serif" font-size="11.00" fill="white">CAR</text>
<polyline fill="none" stroke="black" points="20.95,-1272.5 137.45,-1272.5"/>
<text xml:space="preserve" text-anchor="middle" x="79.2" y="-1258.05" font-family="Helvetica,sans-Serif" font-size="11.00" fill="white">Fee: Rs.0</text>
<polyline fill="none" stroke="black" points="20.95,-1251 137.45,-1251"/>
<text xml:space="preserve" text-anchor="middle" x="79.2" y="-1236.55" font-family="Helvetica,sans-Serif" font-size="11.00" fill="white">2025&#45;05&#45;08 16:56:40</text>
</g>
<!-- S7&#45;&gt;S6 -->
<g id="edge9" class="edge">
<title>S7&#45;&gt;S6</title>
<path fill="none" stroke="black" d="M79.2,-1411.61C79.2,-1398.22 79.2,-1383.98 79.2,-1370.22"/>
<polygon fill="black" stroke="black" points="82.7,-1370.32 79.2,-1360.32 75.7,-1370.32 82.7,-1370.32"/>
<text xml:space="preserve" text-anchor="middle" x="95.7" y="-1380.2" font-family="Times New Roman,serif" font-size="14.00">below</text>
</g>
<!-- S5 -->
<g id="node11" class="node">
<title>S5</title>
<polygon fill="#2ecc71" stroke="black" points="20.95,-1047 20.95,-1176 137.45,-1176 137.45,-1047 20.95,-1047"/>
<text xml:space="preserve" text-anchor="middle" x="79.2" y="-1161.55" font-family="Helvetica,sans-Serif" font-size="11.00" fill="white">ENTRY [index=5]</text>
<polyline fill="none" stroke="black" points="20.95,-1154.5 137.45,-1154.5"/>
<text xml:space="preserve" text-anchor="middle" x="79.2" y="-1140.05" font-family="Helvetica,sans-Serif" font-size="11.00" fill="white">Slot 6</text>
<polyline fill="none" stroke="black" points="20.95,-1133 137.45,-1133"/>
<text xml:space="preserve" text-anchor="middle" x="79.2" y="-1118.55" font-family="Helvetica,sans-Serif" font-size="11.00" fill="white">DL4CAB5678</text>
<polyline fill="none" stroke="black" points="20.95,-1111.5 137.45,-1111.5"/>
<text xml:space="preserve" text-anchor="middle" x="79.2" y="-1097.05" font-family="Helvetica,sans-Serif" font-size="11.00" fill="white">CAR</text>
<polyline fill="none" stroke="black" points="20.95,-1090 137.45,-1090"/>
<text xml:space="preserve" text-anchor="middle" x="79.2" y="-1075.55" font-family="Helvetica,sans-Serif" font-size="11.00" fill="white">Fee: Rs.0</text>
<polyline fill="none" stroke="black" points="20.95,-1068.5 137.45,-1068.5"/>
<text xml:space="preserve" text-anchor="middle" x="79.2" y="-1054.05" font-family="Helvetica,sans-Serif" font-size="11.00" fill="white">2025&#45;05&#45;08 16:46:40</text>
</g>
<!-- S6&#45;&gt;S5 -->
<g id="edge10" class="edge">
<title>S6&#45;&gt;S5</title>
<path fill="none" stroke="black" d="M79.2,-1229.11C79.2,-1215.72 79.2,-1201.48 79.2,-1187.72"/>
<polygon fill="black" stroke="black" points="82.7,-1187.82 79.2,-1177.82 75.7,-1187.82 82.7,-1187.82"/>
<text xml:space="preserve" text-anchor="middle" x="95.7" y="-1197.7" font-family="Times New Roman,serif" font-size="14.00">below</text>
</g>
<!-- S4 -->
<g id="node12" class="node">
<title>S4</title>
<polygon fill="#2ecc71" stroke="black" points="20.95,-864.5 20.95,-993.5 137.45,-993.5 137.45,-864.5 20.95,-864.5"/>
<text xml:space="preserve" text-anchor="middle" x="79.2" y="-979.05" font-family="Helvetica,sans-Serif" font-size="11.00" fill="white">ENTRY [index=4]</text>
<polyline fill="none" stroke="black" points="20.95,-972 137.45,-972"/>
<text xml:space="preserve" text-anchor="middle" x="79.2" y="-957.55" font-family="Helvetica,sans-Serif" font-size="11.00" fill="white">Slot 5</text>
<polyline fill="none" stroke="black" points="20.95,-950.5 137.45,-950.5"/>
<text xml:space="preserve" text-anchor="middle" x="79.2" y="-936.05" font-family="Helvetica,sans-Serif" font-size="11.00" fill="white">WB20IJ4567</text>
<polyline fill="none" stroke="black" points="20.95,-929 137.45,-929"/>
<text xml:space="preserve" text-anchor="middle" x="79.2" y="-914.55" font-family="Helvetica,sans-Serif" font-size="11.00" fill="white">BIKE</text>
<polyline fill="none" stroke="black" points="20.95,-907.5 137.45,-907.5"/>
<text xml:space="preserve" text-anchor="middle" x="79.2" y="-893.05" font-family="Helvetica,sans-Serif" font-size="11.00" fill="white">Fee: Rs.0</text>
<polyline fill="none" stroke="black" points="20.95,-886 137.45,-886"/>
<text xml:space="preserve" text-anchor="middle" x="79.2" y="-871.55" font-family="Helvetica,sans-Serif" font-size="11.00" fill="white">2025&#45;05&#45;08 16:36:40</text>
</g>
<!-- S5&#45;&gt;S4 -->
<g id="edge11" class="edge">
<title>S5&#45;&gt;S4</title>
<path fill="none" stroke="black" d="M79.2,-1046.61C79.2,-1033.22 79.2,-1018.98 79.2,-1005.22"/>
<polygon fill="black" stroke="black" points="82.7,-1005.32 79.2,-995.32 75.7,-1005.32 82.7,-1005.32"/>
<text xml:space="preserve" text-anchor="middle" x="95.7" y="-1015.2" font-family="Times New Roman,serif" font-size="14.00">below</text>
</g>
<!-- S3 -->
<g id="node13" class="node">
<title>S3</title>
<polygon fill="#2ecc71" stroke="black" points="20.95,-682 20.95,-811 137.45,-811 137.45,-682 20.95,-682"/>
<text xml:space="preserve" text-anchor="middle" x="79.2" y="-796.55" font-family="Helvetica,sans-Serif" font-size="11.00" fill="white">ENTRY [index=3]</text>
<polyline fill="none" stroke="black" points="20.95,-789.5 137.45,-789.5"/>
<text xml:space="preserve" text-anchor="middle" x="79.2" y="-775.05" font-family="Helvetica,sans-Serif" font-size="11.00" fill="white">Slot 4</text>
<polyline fill="none" stroke="black" points="20.95,-768 137.45,-768"/>
<text xml:space="preserve" text-anchor="middle" x="79.2" y="-753.55" font-family="Helvetica,sans-Serif" font-size="11.00" fill="white">UP32EF6789</text>
<polyline fill="none" stroke="black" points="20.95,-746.5 137.45,-746.5"/>
<text xml:space="preserve" text-anchor="middle" x="79.2" y="-732.05" font-family="Helvetica,sans-Serif" font-size="11.00" fill="white">BIKE</text>
<polyline fill="none" stroke="black" points="20.95,-725 137.45,-725"/>
<text xml:space="preserve" text-anchor="middle" x="79.2" y="-710.55" font-family="Helvetica,sans-Serif" font-size="11.00" fill="white">Fee: Rs.0</text>
<polyline fill="none" stroke="black" points="20.95,-703.5 137.45,-703.5"/>
<text xml:space="preserve" text-anchor="middle" x="79.2" y="-689.05" font-family="Helvetica,sans-Serif" font-size="11.00" fill="white">2025&#45;05&#45;08 16:26:40</text>
</g>
<!-- S4&#45;&gt;S3 -->
<g id="edge12" class="edge">
<title>S4&#45;&gt;S3</title>
<path fill="none" stroke="black" d="M79.2,-864.11C79.2,-850.72 79.2,-836.48 79.2,-822.72"/>
<polygon fill="black" stroke="black" points="82.7,-822.82 79.2,-812.82 75.7,-822.82 82.7,-822.82"/>
<text xml:space="preserve" text-anchor="middle" x="95.7" y="-832.7" font-family="Times New Roman,serif" font-size="14.00">below</text>
</g>
<!-- S2 -->
<g id="node14" class="node">
<title>S2</title>
<polygon fill="#2ecc71" stroke="black" points="20.95,-499.5 20.95,-628.5 137.45,-628.5 137.45,-499.5 20.95,-499.5"/>
<text xml:space="preserve" text-anchor="middle" x="79.2" y="-614.05" font-family="Helvetica,sans-Serif" font-size="11.00" fill="white">ENTRY [index=2]</text>
<polyline fill="none" stroke="black" points="20.95,-607 137.45,-607"/>
<text xml:space="preserve" text-anchor="middle" x="79.2" y="-592.55" font-family="Helvetica,sans-Serif" font-size="11.00" fill="white">Slot 3</text>
<polyline fill="none" stroke="black" points="20.95,-585.5 137.45,-585.5"/>
<text xml:space="preserve" text-anchor="middle" x="79.2" y="-571.05" font-family="Helvetica,sans-Serif" font-size="11.00" fill="white">GJ01HH7890</text>
<polyline fill="none" stroke="black" points="20.95,-564 137.45,-564"/>
<text xml:space="preserve" text-anchor="middle" x="79.2" y="-549.55" font-family="Helvetica,sans-Serif" font-size="11.00" fill="white">BIKE</text>
<polyline fill="none" stroke="black" points="20.95,-542.5 137.45,-542.5"/>
<text xml:space="preserve" text-anchor="middle" x="79.2" y="-528.05" font-family="Helvetica,sans-Serif" font-size="11.00" fill="white">Fee: Rs.0</text>
<polyline fill="none" stroke="black" points="20.95,-521 137.45,-521"/>
<text xml:space="preserve" text-anchor="middle" x="79.2" y="-506.55" font-family="Helvetica,sans-Serif" font-size="11.00" fill="white">2025&#45;05&#45;08 16:16:40</text>
</g>
<!-- S3&#45;&gt;S2 -->
<g id="edge13" class="edge">
<title>S3&#45;&gt;S2</title>
<path fill="none" stroke="black" d="M79.2,-681.61C79.2,-668.22 79.2,-653.98 79.2,-640.22"/>
<polygon fill="black" stroke="black" points="82.7,-640.32 79.2,-630.32 75.7,-640.32 82.7,-640.32"/>
<text xml:space="preserve" text-anchor="middle" x="95.7" y="-650.2" font-family="Times New Roman,serif" font-size="14.00">below</text>
</g>
<!-- S1 -->
<g id="node15" class="node">
<title>S1</title>
<polygon fill="#2ecc71" stroke="black" points="20.95,-317 20.95,-446 137.45,-446 137.45,-317 20.95,-317"/>
<text xml:space="preserve" text-anchor="middle" x="79.2" y="-431.55" font-family="Helvetica,sans-Serif" font-size="11.00" fill="white">ENTRY [index=1]</text>
<polyline fill="none" stroke="black" points="20.95,-424.5 137.45,-424.5"/>
<text xml:space="preserve" text-anchor="middle" x="79.2" y="-410.05" font-family="Helvetica,sans-Serif" font-size="11.00" fill="white">Slot 2</text>
<polyline fill="none" stroke="black" points="20.95,-403 137.45,-403"/>
<text xml:space="preserve" text-anchor="middle" x="79.2" y="-388.55" font-family="Helvetica,sans-Serif" font-size="11.00" fill="white">KA03MN9012</text>
<polyline fill="none" stroke="black" points="20.95,-381.5 137.45,-381.5"/>
<text xml:space="preserve" text-anchor="middle" x="79.2" y="-367.05" font-family="Helvetica,sans-Serif" font-size="11.00" fill="white">BIKE</text>
<polyline fill="none" stroke="black" points="20.95,-360 137.45,-360"/>
<text xml:space="preserve" text-anchor="middle" x="79.2" y="-345.55" font-family="Helvetica,sans-Serif" font-size="11.00" fill="white">Fee: Rs.0</text>
<polyline fill="none" stroke="black" points="20.95,-338.5 137.45,-338.5"/>
<text xml:space="preserve" text-anchor="middle" x="79.2" y="-324.05" font-family="Helvetica,sans-Serif" font-size="11.00" fill="white">2025&#45;05&#45;08 16:06:40</text>
</g>
<!-- S2&#45;&gt;S1 -->
<g id="edge14" class="edge">
<title>S2&#45;&gt;S1</title>
<path fill="none" stroke="black" d="M79.2,-499.11C79.2,-485.72 79.2,-471.48 79.2,-457.72"/>
<polygon fill="black" stroke="black" points="82.7,-457.82 79.2,-447.82 75.7,-457.82 82.7,-457.82"/>
<text xml:space="preserve" text-anchor="middle" x="95.7" y="-467.7" font-family="Times New Roman,serif" font-size="14.00">below</text>
</g>
<!-- S0 -->
<g id="node16" class="node">
<title>S0</title>
<polygon fill="#2ecc71" stroke="black" points="20.95,-134.5 20.95,-263.5 137.45,-263.5 137.45,-134.5 20.95,-134.5"/>
<text xml:space="preserve" text-anchor="middle" x="79.2" y="-249.05" font-family="Helvetica,sans-Serif" font-size="11.00" fill="white">ENTRY [index=0]</text>
<polyline fill="none" stroke="black" points="20.95,-242 137.45,-242"/>
<text xml:space="preserve" text-anchor="middle" x="79.2" y="-227.55" font-family="Helvetica,sans-Serif" font-size="11.00" fill="white">Slot 1</text>
<polyline fill="none" stroke="black" points="20.95,-220.5 137.45,-220.5"/>
<text xml:space="preserve" text-anchor="middle" x="79.2" y="-206.05" font-family="Helvetica,sans-Serif" font-size="11.00" fill="white">MH12AB1234</text>
<polyline fill="none" stroke="black" points="20.95,-199 137.45,-199"/>
<text xml:space="preserve" text-anchor="middle" x="79.2" y="-184.55" font-family="Helvetica,sans-Serif" font-size="11.00" fill="white">BIKE</text>
<polyline fill="none" stroke="black" points="20.95,-177.5 137.45,-177.5"/>
<text xml:space="preserve" text-anchor="middle" x="79.2" y="-163.05" font-family="Helvetica,sans-Serif" font-size="11.00" fill="white">Fee: Rs.0</text>
<polyline fill="none" stroke="black" points="20.95,-156 137.45,-156"/>
<text xml:space="preserve" text-anchor="middle" x="79.2" y="-141.55" font-family="Helvetica,sans-Serif" font-size="11.00" fill="white">2025&#45;05&#45;08 15:56:40</text>
</g>
<!-- S1&#45;&gt;S0 -->
<g id="edge15" class="edge">
<title>S1&#45;&gt;S0</title>
<path fill="none" stroke="black" d="M79.2,-316.61C79.2,-303.22 79.2,-288.98 79.2,-275.22"/>
<polygon fill="black" stroke="black" points="82.7,-275.32 79.2,-265.32 75.7,-275.32 82.7,-275.32"/>
<text xml:space="preserve" text-anchor="middle" x="95.7" y="-285.2" font-family="Times New Roman,serif" font-size="14.00">below</text>
</g>
<!-- BOTTOM -->
<g id="node17" class="node">
<title>BOTTOM</title>
<polygon fill="#2c3e50" stroke="black" points="134.82,-81.5 23.57,-81.5 23.57,-45.5 134.82,-45.5 134.82,-81.5"/>
<text xml:space="preserve" text-anchor="middle" x="79.2" y="-59.8" font-family="Helvetica,sans-Serif" font-size="11.00" fill="white">BOTTOM (index=0)</text>
</g>
<!-- S0&#45;&gt;BOTTOM -->
<g id="edge16" class="edge">
<title>S0&#45;&gt;BOTTOM</title>
<path fill="none" stroke="black" stroke-dasharray="5,2" d="M79.2,-134.38C79.2,-119.87 79.2,-105.17 79.2,-93.02"/>
<polygon fill="black" stroke="black" points="82.7,-93.33 79.2,-83.33 75.7,-93.33 82.7,-93.33"/>
<text xml:space="preserve" text-anchor="middle" x="95.32" y="-102.7" font-family="Times New Roman,serif" font-size="14.00">oldest</text>
</g>
<!-- Cap -->
<g id="node18" class="node">
<title>Cap</title>
<text xml:space="preserve" text-anchor="middle" x="255.2" y="-2892.55" font-family="Helvetica,sans-Serif" font-size="11.00">Capacity: 15 / 50 entries used</text>
</g>
</g>
</svg>
