<?xml version="1.0" encoding="UTF-8" standalone="no"?>
<!DOCTYPE svg PUBLIC "-//W3C//DTD SVG 1.1//EN"
 "http://www.w3.org/Graphics/SVG/1.1/DTD/svg11.dtd">
<!-- Generated by graphviz version 14.1.5 (20260411.2331)
 -->
<!-- Title: HashMap Pages: 1 -->
<svg width="2581pt" height="343pt"
 viewBox="0.00 0.00 2581.00 343.00" xmlns="http://www.w3.org/2000/svg" xmlns:xlink="http://www.w3.org/1999/xlink">
<g id="graph0" class="graph" transform="scale(1 1) rotate(0) translate(36 307)">
<title>HashMap</title>
<polygon fill="#f8f9fa" stroke="none" points="-36,36 -36,-307 2545.25,-307 2545.25,36 -36,36"/>
<text xml:space="preserve" text-anchor="middle" x="1254.62" y="-26.3" font-family="Helvetica,sans-Serif" font-size="16.00">HASH MAP &#45;&#45; License Plate &#45;&gt; Slot ID</text>
<text xml:space="preserve" text-anchor="middle" x="1254.62" y="-7.55" font-family="Helvetica,sans-Serif" font-size="16.00">(djb2 hash function | 20 buckets | Chaining for collisions)</text>
<g id="clust1" class="cluster">
<title>cluster_buckets</title>
<polygon fill="#ecf0f1" stroke="black" points="73,-147 73,-227 2404,-227 2404,-147 73,-147"/>
<text xml:space="preserve" text-anchor="middle" x="1238.5" y="-207.8" font-family="Helvetica,sans-Serif" font-size="16.00">Hash Buckets</text>
</g>
<!-- B0 -->
<g id="node1" class="node">
<title>B0</title>
<polygon fill="#bdc3c7" stroke="black" points="81,-156 81,-192 140.5,-192 140.5,-156 81,-156"/>
<text xml:space="preserve" text-anchor="middle" x="110.75" y="-170.55" font-family="Helvetica,sans-Serif" font-size="11.00" fill="white">bucket[0]</text>
</g>
<!-- B1 -->
<g id="node2" class="node">
<title>B1</title>
<polygon fill="#bdc3c7" stroke="black" points="258.5,-156 258.5,-192 318,-192 318,-156 258.5,-156"/>
<text xml:space="preserve" text-anchor="middle" x="288.25" y="-170.55" font-family="Helvetica,sans-Serif" font-size="11.00" fill="white">bucket[1]</text>
</g>
<!-- B0&#45;&gt;B1 -->
<!-- NULL0 -->
<g id="node21" class="node">
<title>NULL0</title>
<polygon fill="#95a5a6" stroke="black" points="315.25,-137 261.25,-137 261.25,-101 315.25,-101 315.25,-137"/>
<text xml:space="preserve" text-anchor="middle" x="288.25" y="-115.3" font-family="Helvetica,sans-Serif" font-size="11.00" fill="white">NULL</text>
</g>
<!-- B0&#45;&gt;NULL0 -->
<g id="edge20" class="edge">
<title>B0&#45;&gt;NULL0</title>
<path fill="none" stroke="black" d="M140.73,-164.92C170.6,-155.56 217.29,-140.92 249.91,-130.7"/>
<polygon fill="black" stroke="black" points="250.87,-134.07 259.37,-127.74 248.78,-127.39 250.87,-134.07"/>
</g>
<!-- B2 -->
<g id="node3" class="node">
<title>B2</title>
<polygon fill="#bdc3c7" stroke="black" points="355,-156 355,-192 414.5,-192 414.5,-156 355,-156"/>
<text xml:space="preserve" text-anchor="middle" x="384.75" y="-170.55" font-family="Helvetica,sans-Serif" font-size="11.00" fill="white">bucket[2]</text>
</g>
<!-- B1&#45;&gt;B2 -->
<!-- NULL1 -->
<g id="node22" class="node">
<title>NULL1</title>
<polygon fill="#95a5a6" stroke="black" points="411.75,-137 357.75,-137 357.75,-101 411.75,-101 411.75,-137"/>
<text xml:space="preserve" text-anchor="middle" x="384.75" y="-115.3" font-family="Helvetica,sans-Serif" font-size="11.00" fill="white">NULL</text>
</g>
<!-- B1&#45;&gt;NULL1 -->
<g id="edge21" class="edge">
<title>B1&#45;&gt;NULL1</title>
<path fill="none" stroke="black" d="M318.37,-157.05C327.63,-151.66 337.98,-145.64 347.67,-140"/>
<polygon fill="black" stroke="black" points="349.26,-143.12 356.14,-135.07 345.74,-137.07 349.26,-143.12"/>
</g>
<!-- B3 -->
<g id="node4" class="node">
<title>B3</title>
<polygon fill="#bdc3c7" stroke="black" points="451.5,-156 451.5,-192 511,-192 511,-156 451.5,-156"/>
<text xml:space="preserve" text-anchor="middle" x="481.25" y="-170.55" font-family="Helvetica,sans-Serif" font-size="11.00" fill="white">bucket[3]</text>
</g>
<!-- B2&#45;&gt;B3 -->
<!-- NULL2 -->
<g id="node23" class="node">
<title>NULL2</title>
<polygon fill="#95a5a6" stroke="black" points="508.25,-137 454.25,-137 454.25,-101 508.25,-101 508.25,-137"/>
<text xml:space="preserve" text-anchor="middle" x="481.25" y="-115.3" font-family="Helvetica,sans-Serif" font-size="11.00" fill="white">NULL</text>
</g>
<!-- B2&#45;&gt;NULL2 -->
<g id="edge22" class="edge">
<title>B2&#45;&gt;NULL2</title>
<path fill="none" stroke="black" d="M414.87,-157.05C424.13,-151.66 434.48,-145.64 444.17,-140"/>
<polygon fill="black" stroke="black" points="445.76,-143.12 452.64,-135.07 442.24,-137.07 445.76,-143.12"/>
</g>
<!-- B4 -->
<g id="node5" class="node">
<title>B4</title>
<polygon fill="#9b59b6" stroke="black" points="548,-156 548,-192 607.5,-192 607.5,-156 548,-156"/>
<text xml:space="preserve" text-anchor="middle" x="577.75" y="-170.55" font-family="Helvetica,sans-Serif" font-size="11.00" fill="white">bucket[4]</text>
</g>
<!-- B3&#45;&gt;B4 -->
<!-- NULL3 -->
<g id="node24" class="node">
<title>NULL3</title>
<polygon fill="#95a5a6" stroke="black" points="604.75,-137 550.75,-137 550.75,-101 604.75,-101 604.75,-137"/>
<text xml:space="preserve" text-anchor="middle" x="577.75" y="-115.3" font-family="Helvetica,sans-Serif" font-size="11.00" fill="white">NULL</text>
</g>
<!-- B3&#45;&gt;NULL3 -->
<g id="edge23" class="edge">
<title>B3&#45;&gt;NULL3</title>
<path fill="none" stroke="black" d="M511.37,-157.05C520.63,-151.66 530.98,-145.64 540.67,-140"/>
<polygon fill="black" stroke="black" points="542.26,-143.12 549.14,-135.07 538.74,-137.07 542.26,-143.12"/>
</g>
<!-- B5 -->
<g id="node6" class="node">
<title>B5</title>
<polygon fill="#bdc3c7" stroke="black" points="683.25,-156 683.25,-192 742.75,-192 742.75,-156 683.25,-156"/>
<text xml:space="preserve" text-anchor="middle" x="713" y="-170.55" font-family="Helvetica,sans-Serif" font-size="11.00" fill="white">bucket[5]</text>
</g>
<!-- B4&#45;&gt;B5 -->
<!-- H4_0 -->
<g id="node25" class="node">
<title>H4_0</title>
<polygon fill="#f39c12" stroke="black" points="686,-73 686,-109 740,-109 740,-73 686,-73"/>
<text xml:space="preserve" text-anchor="middle" x="713" y="-87.55" font-family="Helvetica,sans-Serif" font-size="11.00" fill="white">H4_0</text>
</g>
<!-- B4&#45;&gt;H4_0 -->
<g id="edge24" class="edge">
<title>B4&#45;&gt;H4_0</title>
<path fill="none" stroke="black" d="M607.99,-155.79C627.97,-143.34 654.57,-126.78 675.87,-113.51"/>
<polygon fill="black" stroke="black" points="677.62,-116.54 684.25,-108.28 673.92,-110.6 677.62,-116.54"/>
<text xml:space="preserve" text-anchor="middle" x="645.38" y="-147.98" font-family="Times New Roman,serif" font-size="14.00">hash=4</text>
</g>
<!-- B6 -->
<g id="node7" class="node">
<title>B6</title>
<polygon fill="#bdc3c7" stroke="black" points="779.75,-156 779.75,-192 839.25,-192 839.25,-156 779.75,-156"/>
<text xml:space="preserve" text-anchor="middle" x="809.5" y="-170.55" font-family="Helvetica,sans-Serif" font-size="11.00" fill="white">bucket[6]</text>
</g>
<!-- B5&#45;&gt;B6 -->
<!-- NULL5 -->
<g id="node29" class="node">
<title>NULL5</title>
<polygon fill="#95a5a6" stroke="black" points="836.5,-137 782.5,-137 782.5,-101 836.5,-101 836.5,-137"/>
<text xml:space="preserve" text-anchor="middle" x="809.5" y="-115.3" font-family="Helvetica,sans-Serif" font-size="11.00" fill="white">NULL</text>
</g>
<!-- B5&#45;&gt;NULL5 -->
<g id="edge28" class="edge">
<title>B5&#45;&gt;NULL5</title>
<path fill="none" stroke="black" d="M743.12,-157.05C752.38,-151.66 762.73,-145.64 772.42,-140"/>
<polygon fill="black" stroke="black" points="774.01,-143.12 780.89,-135.07 770.49,-137.07 774.01,-143.12"/>
</g>
<!-- B7 -->
<g id="node8" class="node">
<title>B7</title>
<polygon fill="#9b59b6" stroke="black" points="876.25,-156 876.25,-192 935.75,-192 935.75,-156 876.25,-156"/>
<text xml:space="preserve" text-anchor="middle" x="906" y="-170.55" font-family="Helvetica,sans-Serif" font-size="11.00" fill="white">bucket[7]</text>
</g>
<!-- B6&#45;&gt;B7 -->
<!-- NULL6 -->
<g id="node30" class="node">
<title>NULL6</title>
<polygon fill="#95a5a6" stroke="black" points="933,-137 879,-137 879,-101 933,-101 933,-137"/>
<text xml:space="preserve" text-anchor="middle" x="906" y="-115.3" font-family="Helvetica,sans-Serif" font-size="11.00" fill="white">NULL</text>
</g>
<!-- B6&#45;&gt;NULL6 -->
<g id="edge29" class="edge">
<title>B6&#45;&gt;NULL6</title>
<path fill="none" stroke="black" d="M839.62,-157.05C848.88,-151.66 859.23,-145.64 868.92,-140"/>
<polygon fill="black" stroke="black" points="870.51,-143.12 877.39,-135.07 866.99,-137.07 870.51,-143.12"/>
</g>
<!-- B8 -->
<g id="node9" class="node">
<title>B8</title>
<polygon fill="#bdc3c7" stroke="black" points="1011.5,-156 1011.5,-192 1071,-192 1071,-156 1011.5,-156"/>
<text xml:space="preserve" text-anchor="middle" x="1041.25" y="-170.55" font-family="Helvetica,sans-Serif" font-size="11.00" fill="white">bucket[8]</text>
</g>
<!-- B7&#45;&gt;B8 -->
<!-- H7_0 -->
<g id="node31" class="node">
<title>H7_0</title>
<polygon fill="#f39c12" stroke="black" points="1014.25,-101 1014.25,-137 1068.25,-137 1068.25,-101 1014.25,-101"/>
<text xml:space="preserve" text-anchor="middle" x="1041.25" y="-115.55" font-family="Helvetica,sans-Serif" font-size="11.00" fill="white">H7_0</text>
</g>
<!-- B7&#45;&gt;H7_0 -->
<g id="edge30" class="edge">
<title>B7&#45;&gt;H7_0</title>
<path fill="none" stroke="black" d="M936.11,-161.05C941.94,-158.51 948.03,-155.9 953.75,-153.5 969.95,-146.72 987.98,-139.48 1003.37,-133.39"/>
<polygon fill="black" stroke="black" points="1004.61,-136.67 1012.63,-129.74 1002.04,-130.15 1004.61,-136.67"/>
<text xml:space="preserve" text-anchor="middle" x="973.62" y="-156.7" font-family="Times New Roman,serif" font-size="14.00">hash=7</text>
</g>
<!-- B9 -->
<g id="node10" class="node">
<title>B9</title>
<polygon fill="#bdc3c7" stroke="black" points="1130.25,-156 1130.25,-192 1189.75,-192 1189.75,-156 1130.25,-156"/>
<text xml:space="preserve" text-anchor="middle" x="1160" y="-170.55" font-family="Helvetica,sans-Serif" font-size="11.00" fill="white">bucket[9]</text>
</g>
<!-- B8&#45;&gt;B9 -->
<!-- NULL8 -->
<g id="node33" class="node">
<title>NULL8</title>
<polygon fill="#95a5a6" stroke="black" points="1187,-137 1133,-137 1133,-101 1187,-101 1187,-137"/>
<text xml:space="preserve" text-anchor="middle" x="1160" y="-115.3" font-family="Helvetica,sans-Serif" font-size="11.00" fill="white">NULL</text>
</g>
<!-- B8&#45;&gt;NULL8 -->
<g id="edge32" class="edge">
<title>B8&#45;&gt;NULL8</title>
<path fill="none" stroke="black" d="M1071.41,-160.26C1086.81,-153.01 1105.87,-144.03 1122.27,-136.3"/>
<polygon fill="black" stroke="black" points="1123.68,-139.51 1131.23,-132.08 1120.69,-133.18 1123.68,-139.51"/>
</g>
<!-- B10 -->
<g id="node11" class="node">
<title>B10</title>
<polygon fill="#bdc3c7" stroke="black" points="1226.75,-156 1226.75,-192 1292.25,-192 1292.25,-156 1226.75,-156"/>
<text xml:space="preserve" text-anchor="middle" x="1259.5" y="-170.55" font-family="Helvetica,sans-Serif" font-size="11.00" fill="white">bucket[10]</text>
</g>
<!-- B9&#45;&gt;B10 -->
<!-- NULL9 -->
<g id="node34" class="node">
<title>NULL9</title>
<polygon fill="#95a5a6" stroke="black" points="1286.5,-137 1232.5,-137 1232.5,-101 1286.5,-101 1286.5,-137"/>
<text xml:space="preserve" text-anchor="middle" x="1259.5" y="-115.3" font-family="Helvetica,sans-Serif" font-size="11.00" fill="white">NULL</text>
</g>
<!-- B9&#45;&gt;NULL9 -->
<g id="edge33" class="edge">
<title>B9&#45;&gt;NULL9</title>
<path fill="none" stroke="black" d="M1189.99,-157.65C1200.11,-151.94 1211.61,-145.45 1222.25,-139.45"/>
<polygon fill="black" stroke="black" points="1223.81,-142.59 1230.8,-134.63 1220.37,-136.49 1223.81,-142.59"/>
</g>
<!-- B11 -->
<g id="node12" class="node">
<title>B11</title>
<polygon fill="#bdc3c7" stroke="black" points="1329.25,-156 1329.25,-192 1394,-192 1394,-156 1329.25,-156"/>
<text xml:space="preserve" text-anchor="middle" x="1361.62" y="-170.55" font-family="Helvetica,sans-Serif" font-size="11.00" fill="white">bucket[11]</text>
</g>
<!-- B10&#45;&gt;B11 -->
<!-- NULL10 -->
<g id="node35" class="node">
<title>NULL10</title>
<polygon fill="#95a5a6" stroke="black" points="1388.62,-137 1334.62,-137 1334.62,-101 1388.62,-101 1388.62,-137"/>
<text xml:space="preserve" text-anchor="middle" x="1361.62" y="-115.3" font-family="Helvetica,sans-Serif" font-size="11.00" fill="white">NULL</text>
</g>
<!-- B10&#45;&gt;NULL10 -->
<g id="edge34" class="edge">
<title>B10&#45;&gt;NULL10</title>
<path fill="none" stroke="black" d="M1292.73,-156.29C1302.76,-150.78 1313.9,-144.67 1324.19,-139.01"/>
<polygon fill="black" stroke="black" points="1325.74,-142.16 1332.82,-134.27 1322.37,-136.02 1325.74,-142.16"/>
</g>
<!-- B12 -->
<g id="node13" class="node">
<title>B12</title>
<polygon fill="#bdc3c7" stroke="black" points="1431,-156 1431,-192 1496.5,-192 1496.5,-156 1431,-156"/>
<text xml:space="preserve" text-anchor="middle" x="1463.75" y="-170.55" font-family="Helvetica,sans-Serif" font-size="11.00" fill="white">bucket[12]</text>
</g>
<!-- B11&#45;&gt;B12 -->
<!-- NULL11 -->
<g id="node36" class="node">
<title>NULL11</title>
<polygon fill="#95a5a6" stroke="black" points="1490.75,-137 1436.75,-137 1436.75,-101 1490.75,-101 1490.75,-137"/>
<text xml:space="preserve" text-anchor="middle" x="1463.75" y="-115.3" font-family="Helvetica,sans-Serif" font-size="11.00" fill="white">NULL</text>
</g>
<!-- B11&#45;&gt;NULL11 -->
<g id="edge35" class="edge">
<title>B11&#45;&gt;NULL11</title>
<path fill="none" stroke="black" d="M1394.31,-156.6C1404.55,-150.97 1415.99,-144.69 1426.54,-138.89"/>
<polygon fill="black" stroke="black" points="1427.91,-142.13 1434.99,-134.25 1424.54,-136 1427.91,-142.13"/>
</g>
<!-- B13 -->
<g id="node14" class="node">
<title>B13</title>
<polygon fill="#bdc3c7" stroke="black" points="1533.5,-156 1533.5,-192 1599,-192 1599,-156 1533.5,-156"/>
<text xml:space="preserve" text-anchor="middle" x="1566.25" y="-170.55" font-family="Helvetica,sans-Serif" font-size="11.00" fill="white">bucket[13]</text>
</g>
<!-- B12&#45;&gt;B13 -->
<!-- NULL12 -->
<g id="node37" class="node">
<title>NULL12</title>
<polygon fill="#95a5a6" stroke="black" points="1593.25,-137 1539.25,-137 1539.25,-101 1593.25,-101 1593.25,-137"/>
<text xml:space="preserve" text-anchor="middle" x="1566.25" y="-115.3" font-family="Helvetica,sans-Serif" font-size="11.00" fill="white">NULL</text>
</g>
<!-- B12&#45;&gt;NULL12 -->
<g id="edge36" class="edge">
<title>B12&#45;&gt;NULL12</title>
<path fill="none" stroke="black" d="M1496.83,-156.45C1506.99,-150.88 1518.31,-144.69 1528.76,-138.97"/>
<polygon fill="black" stroke="black" points="1530.44,-142.04 1537.53,-134.17 1527.07,-135.9 1530.44,-142.04"/>
</g>
<!-- B14 -->
<g id="node15" class="node">
<title>B14</title>
<polygon fill="#9b59b6" stroke="black" points="1636,-156 1636,-192 1701.5,-192 1701.5,-156 1636,-156"/>
<text xml:space="preserve" text-anchor="middle" x="1668.75" y="-170.55" font-family="Helvetica,sans-Serif" font-size="11.00" fill="white">bucket[14]</text>
</g>
<!-- B13&#45;&gt;B14 -->
<!-- NULL13 -->
<g id="node38" class="node">
<title>NULL13</title>
<polygon fill="#95a5a6" stroke="black" points="1695.75,-137 1641.75,-137 1641.75,-101 1695.75,-101 1695.75,-137"/>
<text xml:space="preserve" text-anchor="middle" x="1668.75" y="-115.3" font-family="Helvetica,sans-Serif" font-size="11.00" fill="white">NULL</text>
</g>
<!-- B13&#45;&gt;NULL13 -->
<g id="edge37" class="edge">
<title>B13&#45;&gt;NULL13</title>
<path fill="none" stroke="black" d="M1599.33,-156.45C1609.49,-150.88 1620.81,-144.69 1631.26,-138.97"/>
<polygon fill="black" stroke="black" points="1632.94,-142.04 1640.03,-134.17 1629.57,-135.9 1632.94,-142.04"/>
</g>
<!-- B15 -->
<g id="node16" class="node">
<title>B15</title>
<polygon fill="#9b59b6" stroke="black" points="1784,-156 1784,-192 1849.5,-192 1849.5,-156 1784,-156"/>
<text xml:space="preserve" text-anchor="middle" x="1816.75" y="-170.55" font-family="Helvetica,sans-Serif" font-size="11.00" fill="white">bucket[15]</text>
</g>
<!-- B14&#45;&gt;B15 -->
<!-- H14_0 -->
<g id="node39" class="node">
<title>H14_0</title>
<polygon fill="#f39c12" stroke="black" points="1789.75,-73 1789.75,-109 1843.75,-109 1843.75,-73 1789.75,-73"/>
<text xml:space="preserve" text-anchor="middle" x="1816.75" y="-87.55" font-family="Helvetica,sans-Serif" font-size="11.00" fill="white">H14_0</text>
</g>
<!-- B14&#45;&gt;H14_0 -->
<g id="edge38" class="edge">
<title>B14&#45;&gt;H14_0</title>
<path fill="none" stroke="black" d="M1701.79,-155.79C1724.85,-142.67 1755.98,-124.98 1779.87,-111.39"/>
<polygon fill="black" stroke="black" points="1781.35,-114.58 1788.31,-106.6 1777.89,-108.5 1781.35,-114.58"/>
<text xml:space="preserve" text-anchor="middle" x="1742.75" y="-147.98" font-family="Times New Roman,serif" font-size="14.00">hash=14</text>
</g>
<!-- B16 -->
<g id="node17" class="node">
<title>B16</title>
<polygon fill="#9b59b6" stroke="black" points="1932,-156 1932,-192 1997.5,-192 1997.5,-156 1932,-156"/>
<text xml:space="preserve" text-anchor="middle" x="1964.75" y="-170.55" font-family="Helvetica,sans-Serif" font-size="11.00" fill="white">bucket[16]</text>
</g>
<!-- B15&#45;&gt;B16 -->
<!-- H15_0 -->
<g id="node41" class="node">
<title>H15_0</title>
<polygon fill="#f39c12" stroke="black" points="1937.75,-101 1937.75,-137 1991.75,-137 1991.75,-101 1937.75,-101"/>
<text xml:space="preserve" text-anchor="middle" x="1964.75" y="-115.55" font-family="Helvetica,sans-Serif" font-size="11.00" fill="white">H15_0</text>
</g>
<!-- B15&#45;&gt;H15_0 -->
<g id="edge40" class="edge">
<title>B15&#45;&gt;H15_0</title>
<path fill="none" stroke="black" d="M1849.78,-160.55C1855.65,-158.15 1861.75,-155.72 1867.5,-153.5 1886.98,-146 1908.87,-138.11 1926.85,-131.77"/>
<polygon fill="black" stroke="black" points="1927.78,-135.16 1936.06,-128.54 1925.46,-128.55 1927.78,-135.16"/>
<text xml:space="preserve" text-anchor="middle" x="1890.75" y="-156.7" font-family="Times New Roman,serif" font-size="14.00">hash=15</text>
</g>
<!-- B17 -->
<g id="node18" class="node">
<title>B17</title>
<polygon fill="#9b59b6" stroke="black" points="2080,-156 2080,-192 2145.5,-192 2145.5,-156 2080,-156"/>
<text xml:space="preserve" text-anchor="middle" x="2112.75" y="-170.55" font-family="Helvetica,sans-Serif" font-size="11.00" fill="white">bucket[17]</text>
</g>
<!-- B16&#45;&gt;B17 -->
<!-- H16_0 -->
<g id="node43" class="node">
<title>H16_0</title>
<polygon fill="#f39c12" stroke="black" points="2085.75,-101 2085.75,-137 2139.75,-137 2139.75,-101 2085.75,-101"/>
<text xml:space="preserve" text-anchor="middle" x="2112.75" y="-115.55" font-family="Helvetica,sans-Serif" font-size="11.00" fill="white">H16_0</text>
</g>
<!-- B16&#45;&gt;H16_0 -->
<g id="edge42" class="edge">
<title>B16&#45;&gt;H16_0</title>
<path fill="none" stroke="black" d="M1997.78,-160.55C2003.65,-158.15 2009.75,-155.72 2015.5,-153.5 2034.98,-146 2056.87,-138.11 2074.85,-131.77"/>
<polygon fill="black" stroke="black" points="2075.78,-135.16 2084.06,-128.54 2073.46,-128.55 2075.78,-135.16"/>
<text xml:space="preserve" text-anchor="middle" x="2038.75" y="-156.7" font-family="Times New Roman,serif" font-size="14.00">hash=16</text>
</g>
<!-- B18 -->
<g id="node19" class="node">
<title>B18</title>
<polygon fill="#bdc3c7" stroke="black" points="2228,-156 2228,-192 2293.5,-192 2293.5,-156 2228,-156"/>
<text xml:space="preserve" text-anchor="middle" x="2260.75" y="-170.55" font-family="Helvetica,sans-Serif" font-size="11.00" fill="white">bucket[18]</text>
</g>
<!-- B17&#45;&gt;B18 -->
<!-- H17_0 -->
<g id="node45" class="node">
<title>H17_0</title>
<polygon fill="#f39c12" stroke="black" points="2233.75,-101 2233.75,-137 2287.75,-137 2287.75,-101 2233.75,-101"/>
<text xml:space="preserve" text-anchor="middle" x="2260.75" y="-115.55" font-family="Helvetica,sans-Serif" font-size="11.00" fill="white">H17_0</text>
</g>
<!-- B17&#45;&gt;H17_0 -->
<g id="edge44" class="edge">
<title>B17&#45;&gt;H17_0</title>
<path fill="none" stroke="black" d="M2145.78,-160.55C2151.65,-158.15 2157.75,-155.72 2163.5,-153.5 2182.98,-146 2204.87,-138.11 2222.85,-131.77"/>
<polygon fill="black" stroke="black" points="2223.78,-135.16 2232.06,-128.54 2221.46,-128.55 2223.78,-135.16"/>
<text xml:space="preserve" text-anchor="middle" x="2186.75" y="-156.7" font-family="Times New Roman,serif" font-size="14.00">hash=17</text>
</g>
<!-- B19 -->
<g id="node20" class="node">
<title>B19</title>
<polygon fill="#bdc3c7" stroke="black" points="2330.5,-156 2330.5,-192 2396,-192 2396,-156 2330.5,-156"/>
<text xml:space="preserve" text-anchor="middle" x="2363.25" y="-170.55" font-family="Helvetica,sans-Serif" font-size="11.00" fill="white">bucket[19]</text>
</g>
<!-- B18&#45;&gt;B19 -->
<!-- NULL18 -->
<g id="node48" class="node">
<title>NULL18</title>
<polygon fill="#95a5a6" stroke="black" points="2390.25,-137 2336.25,-137 2336.25,-101 2390.25,-101 2390.25,-137"/>
<text xml:space="preserve" text-anchor="middle" x="2363.25" y="-115.3" font-family="Helvetica,sans-Serif" font-size="11.00" fill="white">NULL</text>
</g>
<!-- B18&#45;&gt;NULL18 -->
<g id="edge47" class="edge">
<title>B18&#45;&gt;NULL18</title>
<path fill="none" stroke="black" d="M2293.83,-156.45C2303.99,-150.88 2315.31,-144.69 2325.76,-138.97"/>
<polygon fill="black" stroke="black" points="2327.44,-142.04 2334.53,-134.17 2324.07,-135.9 2327.44,-142.04"/>
</g>
<!-- NULL19 -->
<g id="node49" class="node">
<title>NULL19</title>
<polygon fill="#95a5a6" stroke="black" points="2509.25,-192 2455.25,-192 2455.25,-156 2509.25,-156 2509.25,-192"/>
<text xml:space="preserve" text-anchor="middle" x="2482.25" y="-170.3" font-family="Helvetica,sans-Serif" font-size="11.00" fill="white">NULL</text>
</g>
<!-- B19&#45;&gt;NULL19 -->
<g id="edge48" class="edge">
<title>B19&#45;&gt;NULL19</title>
<path fill="none" stroke="black" d="M2396.22,-174C2410.89,-174 2428.37,-174 2443.66,-174"/>
<polygon fill="black" stroke="black" points="2443.33,-177.5 2453.33,-174 2443.33,-170.5 2443.33,-177.5"/>
</g>
<!-- H4_1 -->
<g id="node26" class="node">
<title>H4_1</title>
<polygon fill="#e67e22" stroke="black" points="782.5,-46 782.5,-82 836.5,-82 836.5,-46 782.5,-46"/>
<text xml:space="preserve" text-anchor="middle" x="809.5" y="-60.55" font-family="Helvetica,sans-Serif" font-size="11.00" fill="white">H4_1</text>
</g>
<!-- H4_0&#45;&gt;H4_1 -->
<g id="edge25" class="edge">
<title>H4_0&#45;&gt;H4_1</title>
<path fill="none" stroke="black" d="M740.32,-83.48C749.95,-80.73 761.03,-77.56 771.42,-74.6"/>
<polygon fill="black" stroke="black" points="772.21,-78.01 780.86,-71.9 770.29,-71.28 772.21,-78.01"/>
</g>
<!-- H4_2 -->
<g id="node27" class="node">
<title>H4_2</title>
<polygon fill="#e67e22" stroke="black" points="879,-46 879,-82 933,-82 933,-46 879,-46"/>
<text xml:space="preserve" text-anchor="middle" x="906" y="-60.55" font-family="Helvetica,sans-Serif" font-size="11.00" fill="white">H4_2</text>
</g>
<!-- H4_1&#45;&gt;H4_2 -->
<g id="edge26" class="edge">
<title>H4_1&#45;&gt;H4_2</title>
<path fill="none" stroke="black" d="M836.82,-64C846.35,-64 857.29,-64 867.58,-64"/>
<polygon fill="black" stroke="black" points="867.3,-67.5 877.3,-64 867.3,-60.5 867.3,-67.5"/>
</g>
<!-- NULLH4 -->
<g id="node28" class="node">
<title>NULLH4</title>
<polygon fill="#95a5a6" stroke="black" points="1068.25,-82 1014.25,-82 1014.25,-46 1068.25,-46 1068.25,-82"/>
<text xml:space="preserve" text-anchor="middle" x="1041.25" y="-60.3" font-family="Helvetica,sans-Serif" font-size="11.00" fill="white">NULL</text>
</g>
<!-- H4_2&#45;&gt;NULLH4 -->
<g id="edge27" class="edge">
<title>H4_2&#45;&gt;NULLH4</title>
<path fill="none" stroke="black" d="M933.33,-64C953.13,-64 980.54,-64 1002.65,-64"/>
<polygon fill="black" stroke="black" points="1002.47,-67.5 1012.47,-64 1002.47,-60.5 1002.47,-67.5"/>
<text xml:space="preserve" text-anchor="middle" x="973.62" y="-67.2" font-family="Times New Roman,serif" font-size="14.00">next</text>
</g>
<!-- NULLH7 -->
<g id="node32" class="node">
<title>NULLH7</title>
<polygon fill="#95a5a6" stroke="black" points="1187,-83 1133,-83 1133,-47 1187,-47 1187,-83"/>
<text xml:space="preserve" text-anchor="middle" x="1160" y="-61.3" font-family="Helvetica,sans-Serif" font-size="11.00" fill="white">NULL</text>
</g>
<!-- H7_0&#45;&gt;NULLH7 -->
<g id="edge31" class="edge">
<title>H7_0&#45;&gt;NULLH7</title>
<path fill="none" stroke="black" d="M1067.77,-100.68C1074.48,-96.34 1081.85,-91.96 1089,-88.5 1099.36,-83.48 1111.07,-79.09 1121.9,-75.51"/>
<polygon fill="black" stroke="black" points="1122.85,-78.88 1131.34,-72.53 1120.75,-72.2 1122.85,-78.88"/>
<text xml:space="preserve" text-anchor="middle" x="1100.62" y="-91.7" font-family="Times New Roman,serif" font-size="14.00">next</text>
</g>
<!-- NULLH14 -->
<g id="node40" class="node">
<title>NULLH14</title>
<polygon fill="#95a5a6" stroke="black" points="1991.75,-82 1937.75,-82 1937.75,-46 1991.75,-46 1991.75,-82"/>
<text xml:space="preserve" text-anchor="middle" x="1964.75" y="-60.3" font-family="Helvetica,sans-Serif" font-size="11.00" fill="white">NULL</text>
</g>
<!-- H14_0&#45;&gt;NULLH14 -->
<g id="edge39" class="edge">
<title>H14_0&#45;&gt;NULLH14</title>
<path fill="none" stroke="black" d="M1844.19,-86.11C1867.14,-81.87 1900.61,-75.68 1926.31,-70.92"/>
<polygon fill="black" stroke="black" points="1926.82,-74.39 1936.02,-69.13 1925.55,-67.51 1926.82,-74.39"/>
<text xml:space="preserve" text-anchor="middle" x="1890.75" y="-84.7" font-family="Times New Roman,serif" font-size="14.00">next</text>
</g>
<!-- NULLH15 -->
<g id="node42" class="node">
<title>NULLH15</title>
<polygon fill="#95a5a6" stroke="black" points="2139.75,-82 2085.75,-82 2085.75,-46 2139.75,-46 2139.75,-82"/>
<text xml:space="preserve" text-anchor="middle" x="2112.75" y="-60.3" font-family="Helvetica,sans-Serif" font-size="11.00" fill="white">NULL</text>
</g>
<!-- H15_0&#45;&gt;NULLH15 -->
<g id="edge41" class="edge">
<title>H15_0&#45;&gt;NULLH15</title>
<path fill="none" stroke="black" d="M1992.14,-106.48C1999.62,-103.09 2007.83,-99.52 2015.5,-96.5 2034.71,-88.94 2056.47,-81.49 2074.44,-75.65"/>
<polygon fill="black" stroke="black" points="2075.46,-78.99 2083.91,-72.6 2073.32,-72.33 2075.46,-78.99"/>
<text xml:space="preserve" text-anchor="middle" x="2038.75" y="-99.7" font-family="Times New Roman,serif" font-size="14.00">next</text>
</g>
<!-- NULLH16 -->
<g id="node44" class="node">
<title>NULLH16</title>
<polygon fill="#95a5a6" stroke="black" points="2287.75,-82 2233.75,-82 2233.75,-46 2287.75,-46 2287.75,-82"/>
<text xml:space="preserve" text-anchor="middle" x="2260.75" y="-60.3" font-family="Helvetica,sans-Serif" font-size="11.00" fill="white">NULL</text>
</g>
<!-- H16_0&#45;&gt;NULLH16 -->
<g id="edge43" class="edge">
<title>H16_0&#45;&gt;NULLH16</title>
<path fill="none" stroke="black" d="M2140.14,-106.48C2147.62,-103.09 2155.83,-99.52 2163.5,-96.5 2182.71,-88.94 2204.47,-81.49 2222.44,-75.65"/>
<polygon fill="black" stroke="black" points="2223.46,-78.99 2231.91,-72.6 2221.32,-72.33 2223.46,-78.99"/>
<text xml:space="preserve" text-anchor="middle" x="2186.75" y="-99.7" font-family="Times New Roman,serif" font-size="14.00">next</text>
</g>
<!-- H17_1 -->
<g id="node46" class="node">
<title>H17_1</title>
<polygon fill="#e67e22" stroke="black" points="2336.25,-46 2336.25,-82 2390.25,-82 2390.25,-46 2336.25,-46"/>
<text xml:space="preserve" text-anchor="middle" x="2363.25" y="-60.55" font-family="Helvetica,sans-Serif" font-size="11.00" fill="white">H17_1</text>
</g>
<!-- H17_0&#45;&gt;H17_1 -->
<g id="edge45" class="edge">
<title>H17_0&#45;&gt;H17_1</title>
<path fill="none" stroke="black" d="M2288.16,-104.55C2299.81,-98.17 2313.7,-90.57 2326.28,-83.69"/>
<polygon fill="black" stroke="black" points="2327.6,-86.95 2334.69,-79.08 2324.24,-80.81 2327.6,-86.95"/>
</g>
<!-- NULLH17 -->
<g id="node47" class="node">
<title>NULLH17</title>
<polygon fill="#95a5a6" stroke="black" points="2509.25,-82 2455.25,-82 2455.25,-46 2509.25,-46 2509.25,-82"/>
<text xml:space="preserve" text-anchor="middle" x="2482.25" y="-60.3" font-family="Helvetica,sans-Serif" font-size="11.00" fill="white">NULL</text>
</g>
<!-- H17_1&#45;&gt;NULLH17 -->
<g id="edge46" class="edge">
<title>H17_1&#45;&gt;NULLH17</title>
<path fill="none" stroke="black" d="M2390.51,-64C2406.16,-64 2426.3,-64 2443.62,-64"/>
<polygon fill="black" stroke="black" points="2443.57,-67.5 2453.57,-64 2443.57,-60.5 2443.57,-67.5"/>
<text xml:space="preserve" text-anchor="middle" x="2425.62" y="-67.2" font-family="Times New Roman,serif" font-size="14.00">next</text>
</g>
<!-- ColNote -->
<g id="node50" class="node">
<title>ColNote</title>
<text xml:space="preserve" text-anchor="middle" x="110.75" y="-256.05" font-family="Helvetica,sans-Serif" font-size="11.00">ORANGE nodes = collision in same bucket</text>
<text xml:space="preserve" text-anchor="middle" x="110.75" y="-242.55" font-family="Helvetica,sans-Serif" font-size="11.00">Walk the chain to find the right plate</text>
</g>
</g>
</svg>
