<?xml version="1.0" encoding="UTF-8" standalone="no"?>
<!DOCTYPE svg PUBLIC "-//W3C//DTD SVG 1.1//EN"
 "http://www.w3.org/Graphics/SVG/1.1/DTD/svg11.dtd">
<!-- Generated by graphviz version 14.1.5 (20260411.2331)
 -->
<!-- Title: Flow Pages: 1 -->
<svg width="1742pt" height="936pt"
 viewBox="0.00 0.00 1742.00 936.00" xmlns="http://www.w3.org/2000/svg" xmlns:xlink="http://www.w3.org/1999/xlink">
<g id="graph0" class="graph" transform="scale(1 1) rotate(0) translate(57.6 877.97)">
<title>Flow</title>
<polygon fill="#f8f9fa" stroke="none" points="-57.6,57.6 -57.6,-877.97 1684.25,-877.97 1684.25,57.6 -57.6,57.6"/>
<text xml:space="preserve" text-anchor="middle" x="813.32" y="-26.3" font-family="Helvetica,sans-Serif" font-size="16.00">PROGRAM EXECUTION FLOW</text>
<text xml:space="preserve" text-anchor="middle" x="813.32" y="-7.55" font-family="Helvetica,sans-Serif" font-size="16.00">TEAL = current step | Follow arrows to trace execution</text>
<!-- Start -->
<g id="node1" class="node">
<title>Start</title>
<ellipse fill="#ecf0f1" stroke="black" cx="1278.62" cy="-794.56" rx="85.03" ry="25.81"/>
<text xml:space="preserve" text-anchor="middle" x="1278.62" y="-797.41" font-family="Helvetica,sans-Serif" font-size="12.00" fill="#2c3e50">PROGRAM START</text>
<text xml:space="preserve" text-anchor="middle" x="1278.62" y="-783.16" font-family="Helvetica,sans-Serif" font-size="12.00" fill="#2c3e50">main() called</text>
</g>
<!-- Init -->
<g id="node2" class="node">
<title>Init</title>
<polygon fill="#ecf0f1" stroke="black" points="1379.62,-716.25 1177.62,-716.25 1177.62,-637 1379.62,-637 1379.62,-716.25"/>
<text xml:space="preserve" text-anchor="middle" x="1278.62" y="-700.85" font-family="Helvetica,sans-Serif" font-size="12.00" fill="#2c3e50">SYSTEM INIT</text>
<text xml:space="preserve" text-anchor="middle" x="1278.62" y="-686.6" font-family="Helvetica,sans-Serif" font-size="12.00" fill="#2c3e50">init_slots() &#45;&#45; Array of 10 slots</text>
<text xml:space="preserve" text-anchor="middle" x="1278.62" y="-672.35" font-family="Helvetica,sans-Serif" font-size="12.00" fill="#2c3e50">init_hashmap() &#45;&#45; 20 empty buckets</text>
<text xml:space="preserve" text-anchor="middle" x="1278.62" y="-658.1" font-family="Helvetica,sans-Serif" font-size="12.00" fill="#2c3e50">init_stack() &#160;&#45;&#45; top = &#45;1</text>
<text xml:space="preserve" text-anchor="middle" x="1278.62" y="-643.85" font-family="Helvetica,sans-Serif" font-size="12.00" fill="#2c3e50">init_queue() &#160;&#45;&#45; front = rear = NULL</text>
</g>
<!-- Start&#45;&gt;Init -->
<g id="edge1" class="edge">
<title>Start&#45;&gt;Init</title>
<path fill="none" stroke="black" d="M1278.62,-768.4C1278.62,-756.42 1278.62,-741.65 1278.62,-727.53"/>
<polygon fill="black" stroke="black" points="1282.13,-727.93 1278.63,-717.93 1275.13,-727.93 1282.13,-727.93"/>
<text xml:space="preserve" text-anchor="middle" x="1321.38" y="-737.45" font-family="Times New Roman,serif" font-size="14.00">program begins</text>
</g>
<!-- Menu -->
<g id="node3" class="node">
<title>Menu</title>
<polygon fill="#ecf0f1" stroke="black" points="1360.12,-584.5 1197.12,-584.5 1197.12,-548 1360.12,-548 1360.12,-584.5"/>
<text xml:space="preserve" text-anchor="middle" x="1278.62" y="-569.1" font-family="Helvetica,sans-Serif" font-size="12.00" fill="#2c3e50">SHOW MENU</text>
<text xml:space="preserve" text-anchor="middle" x="1278.62" y="-554.85" font-family="Helvetica,sans-Serif" font-size="12.00" fill="#2c3e50">Wait for user input (1&#45;6 or 0)</text>
</g>
<!-- Init&#45;&gt;Menu -->
<g id="edge2" class="edge">
<title>Init&#45;&gt;Menu</title>
<path fill="none" stroke="black" d="M1278.62,-636.81C1278.62,-623.37 1278.62,-608.55 1278.62,-596.06"/>
<polygon fill="black" stroke="black" points="1282.13,-596.43 1278.63,-586.43 1275.13,-596.43 1282.13,-596.43"/>
<text xml:space="preserve" text-anchor="middle" x="1312.75" y="-605.7" font-family="Times New Roman,serif" font-size="14.00">all DS ready</text>
</g>
<!-- Decision -->
<g id="node4" class="node">
<title>Decision</title>
<polygon fill="#f39c12" stroke="black" points="822.62,-495.5 742.12,-477.5 822.62,-459.5 903.13,-477.5 822.62,-495.5"/>
<text xml:space="preserve" text-anchor="middle" x="822.62" y="-473.23" font-family="Helvetica,sans-Serif" font-size="12.00" fill="white">User Choice?</text>
</g>
<!-- Menu&#45;&gt;Decision -->
<g id="edge3" class="edge">
<title>Menu&#45;&gt;Decision</title>
<path fill="none" stroke="black" d="M1196.84,-549.69C1103.89,-532.01 954.86,-503.66 875.84,-488.62"/>
<polygon fill="black" stroke="black" points="876.67,-485.22 866.19,-486.79 875.36,-492.09 876.67,-485.22"/>
<text xml:space="preserve" text-anchor="middle" x="1125.22" y="-516.7" font-family="Times New Roman,serif" font-size="14.00">reads choice</text>
</g>
<!-- Park -->
<g id="node5" class="node">
<title>Park</title>
<polygon fill="#ecf0f1" stroke="black" points="231.25,-407 0,-407 0,-285 231.25,-285 231.25,-407"/>
<text xml:space="preserve" text-anchor="middle" x="115.62" y="-391.6" font-family="Helvetica,sans-Serif" font-size="12.00" fill="#2c3e50">PARK VEHICLE</text>
<text xml:space="preserve" text-anchor="middle" x="115.62" y="-377.35" font-family="Helvetica,sans-Serif" font-size="12.00" fill="#2c3e50">1. Read plate + owner + type</text>
<text xml:space="preserve" text-anchor="middle" x="115.62" y="-363.1" font-family="Helvetica,sans-Serif" font-size="12.00" fill="#2c3e50">2. Check duplicate &#45;&gt; hashmap_search()</text>
<text xml:space="preserve" text-anchor="middle" x="115.62" y="-348.85" font-family="Helvetica,sans-Serif" font-size="12.00" fill="#2c3e50">3. find_free_slot() &#45;&gt; scan array</text>
<text xml:space="preserve" text-anchor="middle" x="115.62" y="-334.6" font-family="Helvetica,sans-Serif" font-size="12.00" fill="#2c3e50"> &#160;&#160;If slot found: mark OCCUPIED</text>
<text xml:space="preserve" text-anchor="middle" x="115.62" y="-320.35" font-family="Helvetica,sans-Serif" font-size="12.00" fill="#2c3e50"> &#160;&#160;hashmap_insert(plate, slot_id)</text>
<text xml:space="preserve" text-anchor="middle" x="115.62" y="-306.1" font-family="Helvetica,sans-Serif" font-size="12.00" fill="#2c3e50"> &#160;&#160;stack_push(ENTRY log)</text>
<text xml:space="preserve" text-anchor="middle" x="115.62" y="-291.85" font-family="Helvetica,sans-Serif" font-size="12.00" fill="#2c3e50"> &#160;&#160;If no slot: queue_enqueue()</text>
</g>
<!-- Decision&#45;&gt;Park -->
<g id="edge4" class="edge">
<title>Decision&#45;&gt;Park</title>
<path fill="none" stroke="black" d="M747.41,-475.88C637.02,-473.17 425.33,-461.02 242.49,-407.35"/>
<polygon fill="black" stroke="black" points="243.63,-404.04 233.05,-404.53 241.63,-410.75 243.63,-404.04"/>
<text xml:space="preserve" text-anchor="middle" x="406.04" y="-428.2" font-family="Times New Roman,serif" font-size="14.00">choice=1</text>
</g>
<!-- Remove -->
<g id="node6" class="node">
<title>Remove</title>
<polygon fill="#ecf0f1" stroke="black" points="461.88,-407 249.38,-407 249.38,-285 461.88,-285 461.88,-407"/>
<text xml:space="preserve" text-anchor="middle" x="355.62" y="-391.6" font-family="Helvetica,sans-Serif" font-size="12.00" fill="#2c3e50">REMOVE VEHICLE</text>
<text xml:space="preserve" text-anchor="middle" x="355.62" y="-377.35" font-family="Helvetica,sans-Serif" font-size="12.00" fill="#2c3e50">1. Read plate</text>
<text xml:space="preserve" text-anchor="middle" x="355.62" y="-363.1" font-family="Helvetica,sans-Serif" font-size="12.00" fill="#2c3e50">2. hashmap_search() &#45;&gt; O(1) find slot</text>
<text xml:space="preserve" text-anchor="middle" x="355.62" y="-348.85" font-family="Helvetica,sans-Serif" font-size="12.00" fill="#2c3e50">3. calculate_fee() &#45;&gt; duration * rate</text>
<text xml:space="preserve" text-anchor="middle" x="355.62" y="-334.6" font-family="Helvetica,sans-Serif" font-size="12.00" fill="#2c3e50">4. Mark slot FREE</text>
<text xml:space="preserve" text-anchor="middle" x="355.62" y="-320.35" font-family="Helvetica,sans-Serif" font-size="12.00" fill="#2c3e50">5. hashmap_delete(plate)</text>
<text xml:space="preserve" text-anchor="middle" x="355.62" y="-306.1" font-family="Helvetica,sans-Serif" font-size="12.00" fill="#2c3e50">6. stack_push(EXIT log)</text>
<text xml:space="preserve" text-anchor="middle" x="355.62" y="-291.85" font-family="Helvetica,sans-Serif" font-size="12.00" fill="#2c3e50">7. Check queue &#45;&gt; auto&#45;assign</text>
</g>
<!-- Decision&#45;&gt;Remove -->
<g id="edge5" class="edge">
<title>Decision&#45;&gt;Remove</title>
<path fill="none" stroke="black" d="M769.79,-470.85C702.09,-462.57 581.42,-444.31 473.08,-407.65"/>
<polygon fill="black" stroke="black" points="474.33,-404.38 463.73,-404.42 472.04,-411 474.33,-404.38"/>
<text xml:space="preserve" text-anchor="middle" x="619.02" y="-428.2" font-family="Times New Roman,serif" font-size="14.00">choice=2</text>
</g>
<!-- Search -->
<g id="node7" class="node">
<title>Search</title>
<polygon fill="#ecf0f1" stroke="black" points="687.25,-385.62 480,-385.62 480,-306.38 687.25,-306.38 687.25,-385.62"/>
<text xml:space="preserve" text-anchor="middle" x="583.62" y="-370.23" font-family="Helvetica,sans-Serif" font-size="12.00" fill="#2c3e50">SEARCH VEHICLE</text>
<text xml:space="preserve" text-anchor="middle" x="583.62" y="-355.98" font-family="Helvetica,sans-Serif" font-size="12.00" fill="#2c3e50">1. Read plate</text>
<text xml:space="preserve" text-anchor="middle" x="583.62" y="-341.73" font-family="Helvetica,sans-Serif" font-size="12.00" fill="#2c3e50">2. hashmap_search() &#45;&gt; O(1) lookup</text>
<text xml:space="preserve" text-anchor="middle" x="583.62" y="-327.48" font-family="Helvetica,sans-Serif" font-size="12.00" fill="#2c3e50">3. If not found &#45;&gt; scan queue</text>
<text xml:space="preserve" text-anchor="middle" x="583.62" y="-313.23" font-family="Helvetica,sans-Serif" font-size="12.00" fill="#2c3e50">4. Show details + accrued fee</text>
</g>
<!-- Decision&#45;&gt;Search -->
<g id="edge6" class="edge">
<title>Decision&#45;&gt;Search</title>
<path fill="none" stroke="black" d="M798.09,-464.64C784.53,-457.99 767.43,-449.46 752.38,-441.5 722.37,-425.64 689.75,-407.57 661.26,-391.51"/>
<polygon fill="black" stroke="black" points="663.11,-388.53 652.68,-386.66 659.67,-394.63 663.11,-388.53"/>
<text xml:space="preserve" text-anchor="middle" x="777.5" y="-428.2" font-family="Times New Roman,serif" font-size="14.00">choice=3</text>
</g>
<!-- ViewLot -->
<g id="node8" class="node">
<title>ViewLot</title>
<polygon fill="#ecf0f1" stroke="black" points="854,-378.5 705.25,-378.5 705.25,-313.5 854,-313.5 854,-378.5"/>
<text xml:space="preserve" text-anchor="middle" x="779.62" y="-363.1" font-family="Helvetica,sans-Serif" font-size="12.00" fill="#2c3e50">VIEW PARKING LOT</text>
<text xml:space="preserve" text-anchor="middle" x="779.62" y="-348.85" font-family="Helvetica,sans-Serif" font-size="12.00" fill="#2c3e50">Scan array[0..9]</text>
<text xml:space="preserve" text-anchor="middle" x="779.62" y="-334.6" font-family="Helvetica,sans-Serif" font-size="12.00" fill="#2c3e50">Print slot_id, type, status,</text>
<text xml:space="preserve" text-anchor="middle" x="779.62" y="-320.35" font-family="Helvetica,sans-Serif" font-size="12.00" fill="#2c3e50">plate, owner for each slot</text>
</g>
<!-- Decision&#45;&gt;ViewLot -->
<g id="edge7" class="edge">
<title>Decision&#45;&gt;ViewLot</title>
<path fill="none" stroke="black" d="M817.27,-460.36C811.41,-442.72 801.79,-413.74 793.74,-389.5"/>
<polygon fill="black" stroke="black" points="797.12,-388.57 790.64,-380.19 790.47,-390.78 797.12,-388.57"/>
<text xml:space="preserve" text-anchor="middle" x="835.04" y="-428.2" font-family="Times New Roman,serif" font-size="14.00">choice=4</text>
</g>
<!-- ViewQueue -->
<g id="node9" class="node">
<title>ViewQueue</title>
<polygon fill="#ecf0f1" stroke="black" points="1031.25,-378.5 872,-378.5 872,-313.5 1031.25,-313.5 1031.25,-378.5"/>
<text xml:space="preserve" text-anchor="middle" x="951.62" y="-363.1" font-family="Helvetica,sans-Serif" font-size="12.00" fill="#2c3e50">VIEW WAITING LIST</text>
<text xml:space="preserve" text-anchor="middle" x="951.62" y="-348.85" font-family="Helvetica,sans-Serif" font-size="12.00" fill="#2c3e50">Traverse queue linked list</text>
<text xml:space="preserve" text-anchor="middle" x="951.62" y="-334.6" font-family="Helvetica,sans-Serif" font-size="12.00" fill="#2c3e50">front &#45;&gt; ... &#45;&gt; rear</text>
<text xml:space="preserve" text-anchor="middle" x="951.62" y="-320.35" font-family="Helvetica,sans-Serif" font-size="12.00" fill="#2c3e50">Print position + vehicle info</text>
</g>
<!-- Decision&#45;&gt;ViewQueue -->
<g id="edge8" class="edge">
<title>Decision&#45;&gt;ViewQueue</title>
<path fill="none" stroke="black" d="M839.82,-463.03C847.6,-456.72 856.79,-448.96 864.62,-441.5 882.67,-424.32 901.54,-404.14 917.07,-386.85"/>
<polygon fill="black" stroke="black" points="919.36,-389.54 923.4,-379.75 914.13,-384.88 919.36,-389.54"/>
<text xml:space="preserve" text-anchor="middle" x="904.74" y="-428.2" font-family="Times New Roman,serif" font-size="14.00">choice=5</text>
</g>
<!-- ViewLog -->
<g id="node10" class="node">
<title>ViewLog</title>
<polygon fill="#ecf0f1" stroke="black" points="1219.5,-378.5 1049.75,-378.5 1049.75,-313.5 1219.5,-313.5 1219.5,-378.5"/>
<text xml:space="preserve" text-anchor="middle" x="1134.62" y="-363.1" font-family="Helvetica,sans-Serif" font-size="12.00" fill="#2c3e50">VIEW LOG</text>
<text xml:space="preserve" text-anchor="middle" x="1134.62" y="-348.85" font-family="Helvetica,sans-Serif" font-size="12.00" fill="#2c3e50">Read stack top&#45;to&#45;bottom</text>
<text xml:space="preserve" text-anchor="middle" x="1134.62" y="-334.6" font-family="Helvetica,sans-Serif" font-size="12.00" fill="#2c3e50">entries[top] &#45;&gt; entries[0]</text>
<text xml:space="preserve" text-anchor="middle" x="1134.62" y="-320.35" font-family="Helvetica,sans-Serif" font-size="12.00" fill="#2c3e50">Most recent event shown first</text>
</g>
<!-- Decision&#45;&gt;ViewLog -->
<g id="edge9" class="edge">
<title>Decision&#45;&gt;ViewLog</title>
<path fill="none" stroke="black" d="M860.79,-467.59C905.23,-456.47 980.25,-435.43 1040.62,-407 1054.03,-400.69 1067.81,-392.8 1080.55,-384.82"/>
<polygon fill="black" stroke="black" points="1082.26,-387.89 1088.8,-379.55 1078.49,-381.99 1082.26,-387.89"/>
<text xml:space="preserve" text-anchor="middle" x="1019.63" y="-428.2" font-family="Times New Roman,serif" font-size="14.00">choice=6</text>
</g>
<!-- Exit -->
<g id="node11" class="node">
<title>Exit</title>
<ellipse fill="#1abc9c" stroke="black" cx="1361.62" cy="-346" rx="123.74" ry="45.96"/>
<text xml:space="preserve" text-anchor="middle" x="1361.62" y="-363.1" font-family="Helvetica,sans-Serif" font-size="12.00" fill="white">EXIT</text>
<text xml:space="preserve" text-anchor="middle" x="1361.62" y="-348.85" font-family="Helvetica,sans-Serif" font-size="12.00" fill="white">Free queue nodes (malloc)</text>
<text xml:space="preserve" text-anchor="middle" x="1361.62" y="-334.6" font-family="Helvetica,sans-Serif" font-size="12.00" fill="white">Free hashmap nodes (malloc)</text>
<text xml:space="preserve" text-anchor="middle" x="1361.62" y="-320.35" font-family="Helvetica,sans-Serif" font-size="12.00" fill="white">return 0</text>
</g>
<!-- Decision&#45;&gt;Exit -->
<g id="edge10" class="edge">
<title>Decision&#45;&gt;Exit</title>
<path fill="none" stroke="black" d="M879.27,-471.74C958.81,-463.96 1107.44,-445.36 1228.62,-407 1245.22,-401.75 1262.5,-394.99 1278.89,-387.91"/>
<polygon fill="black" stroke="black" points="1279.84,-391.32 1287.58,-384.09 1277.02,-384.91 1279.84,-391.32"/>
<text xml:space="preserve" text-anchor="middle" x="1188.96" y="-428.2" font-family="Times New Roman,serif" font-size="14.00">choice=0</text>
</g>
<!-- Viz -->
<g id="node12" class="node">
<title>Viz</title>
<polygon fill="#8e44ad" stroke="black" points="934.62,-232.5 688.06,-232.5 624.63,-45.5 871.19,-45.5 934.62,-232.5"/>
<text xml:space="preserve" text-anchor="middle" x="779.62" y="-170.35" font-family="Helvetica,sans-Serif" font-size="12.00" fill="white">GENERATE DIAGRAMS</text>
<text xml:space="preserve" text-anchor="middle" x="779.62" y="-156.1" font-family="Helvetica,sans-Serif" font-size="12.00" fill="white">viz_parking_lot()</text>
<text xml:space="preserve" text-anchor="middle" x="779.62" y="-141.85" font-family="Helvetica,sans-Serif" font-size="12.00" fill="white">viz_queue()</text>
<text xml:space="preserve" text-anchor="middle" x="779.62" y="-127.6" font-family="Helvetica,sans-Serif" font-size="12.00" fill="white">viz_stack()</text>
<text xml:space="preserve" text-anchor="middle" x="779.62" y="-113.35" font-family="Helvetica,sans-Serif" font-size="12.00" fill="white">viz_hashmap()</text>
<text xml:space="preserve" text-anchor="middle" x="779.62" y="-99.1" font-family="Helvetica,sans-Serif" font-size="12.00" fill="white">viz_flow()</text>
</g>
<!-- Park&#45;&gt;Viz -->
<g id="edge11" class="edge">
<title>Park&#45;&gt;Viz</title>
<path fill="none" stroke="black" d="M231.42,-288.52C234.5,-287.31 237.58,-286.13 240.62,-285 378.75,-233.77 542.91,-192.25 653.47,-166.97"/>
<polygon fill="black" stroke="black" points="654.22,-170.39 663.19,-164.76 652.67,-163.57 654.22,-170.39"/>
<text xml:space="preserve" text-anchor="middle" x="358.76" y="-253.7" font-family="Times New Roman,serif" font-size="14.00">DS updated</text>
</g>
<!-- Remove&#45;&gt;Viz -->
<g id="edge12" class="edge">
<title>Remove&#45;&gt;Viz</title>
<path fill="none" stroke="black" d="M462.37,-289.11C465.14,-287.72 467.9,-286.35 470.62,-285 533.62,-253.8 604.58,-220.38 662.6,-193.5"/>
<polygon fill="black" stroke="black" points="663.93,-196.74 671.54,-189.37 660.99,-190.39 663.93,-196.74"/>
<text xml:space="preserve" text-anchor="middle" x="569.74" y="-253.7" font-family="Times New Roman,serif" font-size="14.00">DS updated</text>
</g>
<!-- Search&#45;&gt;Viz -->
<g id="edge13" class="edge">
<title>Search&#45;&gt;Viz</title>
<path fill="none" stroke="black" d="M620.95,-305.96C638.74,-287.36 660.92,-264.16 683,-241.06"/>
<polygon fill="black" stroke="black" points="685.38,-243.64 689.76,-233.99 680.32,-238.8 685.38,-243.64"/>
<text xml:space="preserve" text-anchor="middle" x="692.02" y="-253.7" font-family="Times New Roman,serif" font-size="14.00">DS read</text>
</g>
<!-- ViewLot&#45;&gt;Viz -->
<g id="edge14" class="edge">
<title>ViewLot&#45;&gt;Viz</title>
<path fill="none" stroke="black" d="M779.62,-313.42C779.62,-294.54 779.62,-269.36 779.62,-244.05"/>
<polygon fill="black" stroke="black" points="783.13,-244.34 779.63,-234.34 776.13,-244.34 783.13,-244.34"/>
<text xml:space="preserve" text-anchor="middle" x="801.75" y="-253.7" font-family="Times New Roman,serif" font-size="14.00">DS read</text>
</g>
<!-- ViewQueue&#45;&gt;Viz -->
<g id="edge15" class="edge">
<title>ViewQueue&#45;&gt;Viz</title>
<path fill="none" stroke="black" d="M925.13,-313.42C908.72,-293.86 886.64,-267.54 864.64,-241.33"/>
<polygon fill="black" stroke="black" points="867.59,-239.4 858.48,-233.99 862.23,-243.9 867.59,-239.4"/>
<text xml:space="preserve" text-anchor="middle" x="908.21" y="-253.7" font-family="Times New Roman,serif" font-size="14.00">DS read</text>
</g>
<!-- ViewLog&#45;&gt;Viz -->
<g id="edge16" class="edge">
<title>ViewLog&#45;&gt;Viz</title>
<path fill="none" stroke="black" d="M1086.19,-313.29C1071.65,-303.99 1055.59,-293.92 1040.62,-285 1008.81,-266.04 974.43,-246.36 941.39,-227.85"/>
<polygon fill="black" stroke="black" points="943.4,-224.97 932.96,-223.15 939.99,-231.08 943.4,-224.97"/>
<text xml:space="preserve" text-anchor="middle" x="1027.74" y="-253.7" font-family="Times New Roman,serif" font-size="14.00">DS read</text>
</g>
<!-- Exit&#45;&gt;Exit -->
<!-- Viz&#45;&gt;Menu -->
<g id="edge17" class="edge">
<title>Viz&#45;&gt;Menu</title>
<path fill="none" stroke="#8e44ad" stroke-dasharray="5,2" d="M904.62,-143.61C1109.35,-152.45 1502.01,-182.65 1587.62,-285 1622.42,-326.59 1615.91,-360.74 1587.62,-407 1540.9,-483.42 1444.28,-524.45 1371.45,-545.42"/>
<polygon fill="#8e44ad" stroke="#8e44ad" points="1370.58,-542.03 1361.89,-548.08 1372.46,-548.77 1370.58,-542.03"/>
<text xml:space="preserve" text-anchor="middle" x="1600.02" y="-428.2" font-family="Times New Roman,serif" font-size="14.00">loop back</text>
</g>
</g>
</svg>
